<mxfile host="65bd71144e">
    <diagram id="dqenSdSLRRkjRAQdouFI" name="Page-1">
        <mxGraphModel dx="2972" dy="4959" grid="1" gridSize="10" guides="1" tooltips="1" connect="1" arrows="1" fold="1" page="0" pageScale="1" pageWidth="850" pageHeight="1100" math="0" shadow="0">
            <root>
                <mxCell id="0"/>
                <mxCell id="1" parent="0"/>
                <mxCell id="245" value="" style="rounded=1;whiteSpace=wrap;html=1;fontSize=40;fontColor=#ffffff;fillColor=#60a917;strokeColor=#2D7600;" parent="1" vertex="1">
                    <mxGeometry x="2510" y="-1565" width="1240" height="1085" as="geometry"/>
                </mxCell>
                <mxCell id="242" value="" style="rounded=1;whiteSpace=wrap;html=1;fontSize=40;fontColor=#ffffff;fillColor=#60a917;strokeColor=#2D7600;" parent="1" vertex="1">
                    <mxGeometry x="4130" y="-1450" width="1030" height="710" as="geometry"/>
                </mxCell>
                <mxCell id="224" value="" style="rounded=1;whiteSpace=wrap;html=1;fillColor=#7D7540;fontColor=#000000;strokeColor=#B09500;" parent="1" vertex="1">
                    <mxGeometry x="2679.69" y="-3295" width="300" height="435" as="geometry"/>
                </mxCell>
                <mxCell id="106" value="" style="rounded=1;whiteSpace=wrap;html=1;fontSize=40;fontColor=#ffffff;fillColor=#60a917;strokeColor=#2D7600;" parent="1" vertex="1">
                    <mxGeometry x="2500" y="-290" width="1305" height="645" as="geometry"/>
                </mxCell>
                <mxCell id="79" value="" style="rounded=1;whiteSpace=wrap;html=1;fontSize=40;fontColor=#000000;fillColor=#f0a30a;strokeColor=#BD7000;" parent="1" vertex="1">
                    <mxGeometry x="3740" y="-2820" width="1930" height="710" as="geometry"/>
                </mxCell>
                <mxCell id="78" value="" style="rounded=1;whiteSpace=wrap;html=1;fontSize=40;fontColor=#000000;fillColor=#f0a30a;strokeColor=#BD7000;" parent="1" vertex="1">
                    <mxGeometry x="3740" y="-3560" width="1020" height="630" as="geometry"/>
                </mxCell>
                <mxCell id="2" value="" style="rounded=0;whiteSpace=wrap;html=1;" parent="1" vertex="1">
                    <mxGeometry x="3780" y="-3450" width="240" height="480" as="geometry"/>
                </mxCell>
                <mxCell id="4" value="admin" style="rounded=1;whiteSpace=wrap;html=1;align=left;fillColor=#a20025;fontColor=#ffffff;strokeColor=#6F0000;" parent="1" vertex="1">
                    <mxGeometry x="3810" y="-3240" width="180" height="30" as="geometry"/>
                </mxCell>
                <mxCell id="5" value="****************" style="rounded=1;whiteSpace=wrap;html=1;align=left;fillColor=#a20025;fontColor=#ffffff;strokeColor=#6F0000;" parent="1" vertex="1">
                    <mxGeometry x="3810" y="-3160" width="180" height="30" as="geometry"/>
                </mxCell>
                <mxCell id="6" value="USUARIO" style="text;html=1;strokeColor=none;fillColor=none;align=left;verticalAlign=middle;whiteSpace=wrap;rounded=0;" parent="1" vertex="1">
                    <mxGeometry x="3810" y="-3270" width="60" height="30" as="geometry"/>
                </mxCell>
                <mxCell id="7" value="CONTRASEÑA" style="text;html=1;strokeColor=none;fillColor=none;align=left;verticalAlign=middle;whiteSpace=wrap;rounded=0;" parent="1" vertex="1">
                    <mxGeometry x="3810" y="-3190" width="100" height="30" as="geometry"/>
                </mxCell>
                <mxCell id="8" value="LOGO" style="ellipse;whiteSpace=wrap;html=1;aspect=fixed;fillColor=#d80073;fontColor=#ffffff;strokeColor=#A50040;" parent="1" vertex="1">
                    <mxGeometry x="3860" y="-3370" width="80" height="80" as="geometry"/>
                </mxCell>
                <mxCell id="9" value="ENTRAR" style="rounded=1;whiteSpace=wrap;html=1;fillColor=#1ba1e2;fontColor=#ffffff;strokeColor=#006EAF;" parent="1" vertex="1">
                    <mxGeometry x="3840" y="-3100" width="120" height="30" as="geometry"/>
                </mxCell>
                <mxCell id="11" value="&lt;h1 style=&quot;text-align: left;&quot;&gt;&lt;font color=&quot;#000000&quot;&gt;Componentes y comportamiento de LoginPage&lt;/font&gt;&lt;/h1&gt;&lt;p style=&quot;text-align: left;&quot;&gt;&lt;font color=&quot;#000000&quot;&gt;&amp;gt; img (logo)&lt;/font&gt;&lt;/p&gt;&lt;p style=&quot;text-align: left;&quot;&gt;&lt;font color=&quot;#000000&quot;&gt;&amp;gt; LoginForm (form):&lt;/font&gt;&lt;/p&gt;&lt;p style=&quot;text-align: left;&quot;&gt;&lt;span style=&quot;background-color: initial;&quot;&gt;&lt;font color=&quot;#000000&quot;&gt;&lt;span style=&quot;white-space: pre;&quot;&gt;&#9;&lt;/span&gt;- Si los datos enviados son correctos, entonces redirige a /myfeed &lt;span style=&quot;white-space: pre;&quot;&gt;&#9;&lt;/span&gt;del usuario&lt;/font&gt;&lt;/span&gt;&lt;/p&gt;&lt;p style=&quot;text-align: left;&quot;&gt;&lt;span style=&quot;background-color: initial;&quot;&gt;&lt;font color=&quot;#000000&quot;&gt;&lt;span style=&quot;white-space: pre;&quot;&gt;&#9;&lt;/span&gt;- Si los datos enviados son incorrectos, entonces renderiza &lt;span style=&quot;white-space: pre;&quot;&gt;&#9;&lt;/span&gt;UnsuccessfulLoginMessage&lt;/font&gt;&lt;/span&gt;&lt;/p&gt;&lt;p style=&quot;text-align: left;&quot;&gt;&lt;font color=&quot;#000000&quot;&gt;&lt;span style=&quot;white-space: pre;&quot;&gt;&#9;&lt;/span&gt;&amp;gt;&amp;nbsp;NormalInput (input para usuario)&lt;br&gt;&lt;/font&gt;&lt;/p&gt;&lt;p style=&quot;text-align: left;&quot;&gt;&lt;font color=&quot;#000000&quot;&gt;&lt;span style=&quot;white-space: pre;&quot;&gt;&#9;&lt;/span&gt;&amp;gt;&amp;nbsp;NormalInput (input para contraseña)&lt;br&gt;&lt;/font&gt;&lt;/p&gt;&lt;p style=&quot;text-align: left;&quot;&gt;&lt;font color=&quot;#000000&quot;&gt;&lt;span style=&quot;white-space: pre;&quot;&gt;&#9;&lt;/span&gt;&amp;gt;&amp;nbsp;LoginButton (button para enviar datos del formulario&lt;span style=&quot;background-color: initial;&quot;&gt;)&lt;/span&gt;&lt;/font&gt;&lt;/p&gt;&lt;p style=&quot;text-align: left;&quot;&gt;&lt;font color=&quot;#000000&quot;&gt;&amp;gt; GoToRegisterPageButton (button que redirige a /register)&lt;/font&gt;&lt;/p&gt;&lt;p style=&quot;text-align: left;&quot;&gt;&lt;font color=&quot;#000000&quot;&gt;&amp;gt; UnsuccessfulLoginMessage (div):&lt;/font&gt;&lt;/p&gt;&lt;p style=&quot;text-align: left;&quot;&gt;&lt;font color=&quot;#000000&quot;&gt;&lt;span style=&quot;white-space: pre;&quot;&gt;&#9;&lt;/span&gt;&amp;gt;&amp;nbsp;p (mensaje de error)&lt;br&gt;&lt;/font&gt;&lt;/p&gt;&lt;p style=&quot;text-align: left;&quot;&gt;&lt;font color=&quot;#000000&quot;&gt;&lt;span style=&quot;white-space: pre;&quot;&gt;&#9;&lt;/span&gt;&amp;gt;&amp;nbsp;button (oculta UnsuccessfulLoginMessage)&lt;br&gt;&lt;/font&gt;&lt;/p&gt;&lt;p style=&quot;text-align: left;&quot;&gt;&lt;span style=&quot;white-space: pre;&quot;&gt;&lt;font color=&quot;#000000&quot;&gt;&#9;&lt;/font&gt;&lt;/span&gt;&lt;br&gt;&lt;/p&gt;" style="text;html=1;strokeColor=none;fillColor=none;spacing=5;spacingTop=-20;whiteSpace=wrap;overflow=hidden;rounded=0;align=center;" parent="1" vertex="1">
                    <mxGeometry x="4340" y="-3450" width="400" height="480" as="geometry"/>
                </mxCell>
                <mxCell id="12" value="/login" style="text;html=1;strokeColor=none;fillColor=none;align=center;verticalAlign=middle;whiteSpace=wrap;rounded=0;" parent="1" vertex="1">
                    <mxGeometry x="3780" y="-3480" width="60" height="30" as="geometry"/>
                </mxCell>
                <mxCell id="13" value="" style="rounded=0;whiteSpace=wrap;html=1;" parent="1" vertex="1">
                    <mxGeometry x="3790" y="-2705" width="240" height="480" as="geometry"/>
                </mxCell>
                <mxCell id="14" value="&lt;h1 style=&quot;text-align: left;&quot;&gt;&lt;font color=&quot;#000000&quot;&gt;Componentes y comportamiento&amp;nbsp; de RegisterPage&lt;/font&gt;&lt;/h1&gt;&lt;p style=&quot;text-align: left;&quot;&gt;&lt;font color=&quot;#000000&quot;&gt;&amp;gt; h1 (título)&lt;/font&gt;&lt;/p&gt;&lt;p style=&quot;text-align: left;&quot;&gt;&lt;font color=&quot;#000000&quot;&gt;&amp;gt; RegisterForm (form):&lt;/font&gt;&lt;/p&gt;&lt;p style=&quot;text-align: left;&quot;&gt;&lt;font color=&quot;#000000&quot;&gt;&lt;span style=&quot;&quot;&gt;&#9;&lt;/span&gt;&lt;span style=&quot;background-color: initial;&quot;&gt;&lt;span style=&quot;white-space: pre;&quot;&gt;&#9;&lt;/span&gt;- Si los datos enviados son correctos, entonces renderiza &lt;span style=&quot;white-space: pre;&quot;&gt;&#9;&lt;/span&gt;SuccessfulRegisterMessage y crea el usuario en backend&lt;/span&gt;&lt;br&gt;&lt;/font&gt;&lt;/p&gt;&lt;p style=&quot;text-align: left;&quot;&gt;&lt;font color=&quot;#000000&quot;&gt;&lt;span style=&quot;&quot;&gt;&#9;&lt;/span&gt;&lt;span style=&quot;white-space: pre;&quot;&gt;&#9;&lt;/span&gt;- Si los datos enviados son incorrectos, entonces renderiza &lt;span style=&quot;white-space: pre;&quot;&gt;&#9;&lt;/span&gt;UnsuccessfulRegisterMessage con el respectivo mensaje de error&lt;/font&gt;&lt;/p&gt;&lt;p style=&quot;text-align: left;&quot;&gt;&lt;font color=&quot;#000000&quot;&gt;&lt;span style=&quot;&quot;&gt;&#9;&lt;/span&gt;&lt;span style=&quot;white-space: pre;&quot;&gt;&#9;&lt;/span&gt;&amp;gt;&amp;nbsp;NormalInput (input para usuario)&lt;br&gt;&lt;/font&gt;&lt;/p&gt;&lt;p style=&quot;text-align: left;&quot;&gt;&lt;font color=&quot;#000000&quot;&gt;&lt;span style=&quot;white-space: pre;&quot;&gt;&#9;&lt;/span&gt;&amp;gt; NormalInput (input para email)&lt;br&gt;&lt;/font&gt;&lt;/p&gt;&lt;p style=&quot;text-align: left;&quot;&gt;&lt;font color=&quot;#000000&quot;&gt;&lt;span style=&quot;&quot;&gt;&#9;&lt;/span&gt;&lt;span style=&quot;white-space: pre;&quot;&gt;&#9;&lt;/span&gt;&amp;gt;&amp;nbsp;NormalInput (input para contraseña)&lt;br&gt;&lt;/font&gt;&lt;/p&gt;&lt;p style=&quot;text-align: left;&quot;&gt;&lt;font color=&quot;#000000&quot;&gt;&lt;span style=&quot;&quot;&gt;&#9;&lt;/span&gt;&lt;span style=&quot;white-space: pre;&quot;&gt;&#9;&lt;/span&gt;&amp;gt;&amp;nbsp;NormalInput (input para repetir contraseña)&lt;br&gt;&lt;/font&gt;&lt;/p&gt;&lt;p style=&quot;text-align: left;&quot;&gt;&lt;font color=&quot;#000000&quot;&gt;&lt;span style=&quot;&quot;&gt;&#9;&lt;/span&gt;&lt;span style=&quot;white-space: pre;&quot;&gt;&#9;&lt;/span&gt;&amp;gt;&amp;nbsp;RegisterButton (button para enviar datos del formulario&lt;span style=&quot;background-color: initial;&quot;&gt;)&lt;/span&gt;&lt;/font&gt;&lt;/p&gt;&lt;p style=&quot;text-align: left;&quot;&gt;&lt;span style=&quot;background-color: initial;&quot;&gt;&lt;font color=&quot;#000000&quot;&gt;&amp;gt;&amp;nbsp;GoToLoginPageButton (button para cancelar el registro y regresar a /login)&lt;br&gt;&lt;/font&gt;&lt;/span&gt;&lt;/p&gt;&lt;p style=&quot;text-align: left;&quot;&gt;&lt;span style=&quot;background-color: initial;&quot;&gt;&lt;font color=&quot;#000000&quot;&gt;&amp;gt; SuccessfulRegisterMessage (div):&lt;/font&gt;&lt;/span&gt;&lt;/p&gt;&lt;p style=&quot;text-align: left;&quot;&gt;&lt;span style=&quot;background-color: initial;&quot;&gt;&lt;font color=&quot;#000000&quot;&gt;&lt;span style=&quot;&quot;&gt;&#9;&lt;/span&gt;&lt;span style=&quot;white-space: pre;&quot;&gt;&#9;&lt;/span&gt;&amp;gt;&amp;nbsp;p (mensaje de éxito)&lt;br&gt;&lt;/font&gt;&lt;/span&gt;&lt;/p&gt;&lt;p style=&quot;text-align: left;&quot;&gt;&lt;span style=&quot;background-color: initial;&quot;&gt;&lt;font color=&quot;#000000&quot;&gt;&lt;span style=&quot;&quot;&gt;&#9;&lt;/span&gt;&lt;span style=&quot;white-space: pre;&quot;&gt;&#9;&lt;/span&gt;&amp;gt; button (oculta SuccesfulRegisterMessage)&lt;br&gt;&lt;/font&gt;&lt;/span&gt;&lt;/p&gt;&lt;p style=&quot;text-align: left;&quot;&gt;&lt;span style=&quot;background-color: initial;&quot;&gt;&lt;font color=&quot;#000000&quot;&gt;&amp;gt; UnsuccessfulRegisterMessage (div):&lt;/font&gt;&lt;/span&gt;&lt;/p&gt;&lt;p style=&quot;text-align: left;&quot;&gt;&lt;span style=&quot;background-color: initial;&quot;&gt;&lt;font color=&quot;#000000&quot;&gt;&lt;span style=&quot;&quot;&gt;&#9;&lt;/span&gt;&lt;span style=&quot;white-space: pre;&quot;&gt;&#9;&lt;/span&gt;&amp;gt;&amp;nbsp;p (mensaje de error)&lt;br&gt;&lt;/font&gt;&lt;/span&gt;&lt;/p&gt;&lt;p style=&quot;text-align: left;&quot;&gt;&lt;span style=&quot;background-color: initial;&quot;&gt;&lt;font color=&quot;#000000&quot;&gt;&lt;span style=&quot;&quot;&gt;&#9;&lt;/span&gt;&lt;span style=&quot;white-space: pre;&quot;&gt;&#9;&lt;/span&gt;&amp;gt;&amp;nbsp;button (oculta UnsuccessfulRegisterMessage)&lt;/font&gt;&lt;br&gt;&lt;/span&gt;&lt;/p&gt;" style="text;html=1;strokeColor=none;fillColor=none;spacing=5;spacingTop=-20;whiteSpace=wrap;overflow=hidden;rounded=0;align=center;" parent="1" vertex="1">
                    <mxGeometry x="5200" y="-2710" width="470" height="555" as="geometry"/>
                </mxCell>
                <mxCell id="15" value="admin" style="rounded=1;whiteSpace=wrap;html=1;align=left;fillColor=#a20025;fontColor=#ffffff;strokeColor=#6F0000;" parent="1" vertex="1">
                    <mxGeometry x="3820" y="-2550" width="180" height="30" as="geometry"/>
                </mxCell>
                <mxCell id="16" value="**************" style="rounded=1;whiteSpace=wrap;html=1;align=left;fillColor=#a20025;fontColor=#ffffff;strokeColor=#6F0000;" parent="1" vertex="1">
                    <mxGeometry x="3820" y="-2430" width="180" height="30" as="geometry"/>
                </mxCell>
                <mxCell id="17" value="**************" style="rounded=1;whiteSpace=wrap;html=1;align=left;fillColor=#a20025;fontColor=#ffffff;strokeColor=#6F0000;" parent="1" vertex="1">
                    <mxGeometry x="3820" y="-2370" width="180" height="30" as="geometry"/>
                </mxCell>
                <mxCell id="18" value="USUARIO" style="text;html=1;strokeColor=none;fillColor=none;align=left;verticalAlign=middle;whiteSpace=wrap;rounded=0;" parent="1" vertex="1">
                    <mxGeometry x="3820" y="-2580" width="60" height="30" as="geometry"/>
                </mxCell>
                <mxCell id="19" value="CONTRASEÑA" style="text;html=1;strokeColor=none;fillColor=none;align=left;verticalAlign=middle;whiteSpace=wrap;rounded=0;" parent="1" vertex="1">
                    <mxGeometry x="3820" y="-2460" width="80" height="30" as="geometry"/>
                </mxCell>
                <mxCell id="20" value="REPETIR CONTRASEÑA" style="text;html=1;strokeColor=none;fillColor=none;align=left;verticalAlign=middle;whiteSpace=wrap;rounded=0;" parent="1" vertex="1">
                    <mxGeometry x="3820" y="-2400" width="160" height="30" as="geometry"/>
                </mxCell>
                <mxCell id="21" value="CREAR CUENTA" style="rounded=1;whiteSpace=wrap;html=1;fillColor=#1ba1e2;fontColor=#ffffff;strokeColor=#006EAF;" parent="1" vertex="1">
                    <mxGeometry x="3850" y="-2325" width="120" height="30" as="geometry"/>
                </mxCell>
                <mxCell id="23" value="CREAR CUENTA" style="rounded=0;whiteSpace=wrap;html=1;" parent="1" vertex="1">
                    <mxGeometry x="3850" y="-2632.5" width="120" height="15" as="geometry"/>
                </mxCell>
                <mxCell id="24" value="/register" style="text;html=1;strokeColor=none;fillColor=none;align=center;verticalAlign=middle;whiteSpace=wrap;rounded=0;" parent="1" vertex="1">
                    <mxGeometry x="3790" y="-2735" width="60" height="30" as="geometry"/>
                </mxCell>
                <mxCell id="25" value="" style="rounded=0;whiteSpace=wrap;html=1;" parent="1" vertex="1">
                    <mxGeometry x="4070" y="-2705" width="240" height="480" as="geometry"/>
                </mxCell>
                <mxCell id="26" value="usuario" style="rounded=1;whiteSpace=wrap;html=1;align=left;" parent="1" vertex="1">
                    <mxGeometry x="4100" y="-2545" width="180" height="30" as="geometry"/>
                </mxCell>
                <mxCell id="27" value="123" style="rounded=1;whiteSpace=wrap;html=1;align=left;" parent="1" vertex="1">
                    <mxGeometry x="4100" y="-2465" width="180" height="30" as="geometry"/>
                </mxCell>
                <mxCell id="28" value="123" style="rounded=1;whiteSpace=wrap;html=1;align=left;" parent="1" vertex="1">
                    <mxGeometry x="4100" y="-2385" width="180" height="30" as="geometry"/>
                </mxCell>
                <mxCell id="29" value="Usuario" style="text;html=1;strokeColor=none;fillColor=none;align=left;verticalAlign=middle;whiteSpace=wrap;rounded=0;" parent="1" vertex="1">
                    <mxGeometry x="4100" y="-2575" width="60" height="30" as="geometry"/>
                </mxCell>
                <mxCell id="30" value="Contraseña" style="text;html=1;strokeColor=none;fillColor=none;align=left;verticalAlign=middle;whiteSpace=wrap;rounded=0;" parent="1" vertex="1">
                    <mxGeometry x="4100" y="-2495" width="80" height="30" as="geometry"/>
                </mxCell>
                <mxCell id="31" value="Repetir contraseña" style="text;html=1;strokeColor=none;fillColor=none;align=left;verticalAlign=middle;whiteSpace=wrap;rounded=0;" parent="1" vertex="1">
                    <mxGeometry x="4100" y="-2415" width="120" height="30" as="geometry"/>
                </mxCell>
                <mxCell id="32" value="ACEPTAR" style="rounded=1;whiteSpace=wrap;html=1;" parent="1" vertex="1">
                    <mxGeometry x="4130" y="-2325" width="120" height="30" as="geometry"/>
                </mxCell>
                <mxCell id="33" value="Registro" style="rounded=0;whiteSpace=wrap;html=1;" parent="1" vertex="1">
                    <mxGeometry x="4130" y="-2655" width="120" height="60" as="geometry"/>
                </mxCell>
                <mxCell id="36" value="&lt;br&gt;¡Bienvenido, admin!" style="rounded=0;whiteSpace=wrap;html=1;" parent="1" vertex="1">
                    <mxGeometry x="4090" y="-2675" width="200" height="420" as="geometry"/>
                </mxCell>
                <mxCell id="37" value="INICIAR SESIÓN" style="rounded=1;whiteSpace=wrap;html=1;fillColor=#1ba1e2;fontColor=#ffffff;strokeColor=#006EAF;" parent="1" vertex="1">
                    <mxGeometry x="3850" y="-2285" width="120" height="30" as="geometry"/>
                </mxCell>
                <mxCell id="38" value="OK" style="rounded=1;whiteSpace=wrap;html=1;fillColor=#1ba1e2;fontColor=#ffffff;strokeColor=#006EAF;" parent="1" vertex="1">
                    <mxGeometry x="4130" y="-2315" width="120" height="30" as="geometry"/>
                </mxCell>
                <mxCell id="39" value="" style="rounded=0;whiteSpace=wrap;html=1;" parent="1" vertex="1">
                    <mxGeometry x="4350" y="-2705" width="240" height="480" as="geometry"/>
                </mxCell>
                <mxCell id="40" value="usuario" style="rounded=1;whiteSpace=wrap;html=1;align=left;" parent="1" vertex="1">
                    <mxGeometry x="4380" y="-2545" width="180" height="30" as="geometry"/>
                </mxCell>
                <mxCell id="41" value="123" style="rounded=1;whiteSpace=wrap;html=1;align=left;" parent="1" vertex="1">
                    <mxGeometry x="4380" y="-2465" width="180" height="30" as="geometry"/>
                </mxCell>
                <mxCell id="42" value="123" style="rounded=1;whiteSpace=wrap;html=1;align=left;" parent="1" vertex="1">
                    <mxGeometry x="4380" y="-2385" width="180" height="30" as="geometry"/>
                </mxCell>
                <mxCell id="43" value="Usuario" style="text;html=1;strokeColor=none;fillColor=none;align=left;verticalAlign=middle;whiteSpace=wrap;rounded=0;" parent="1" vertex="1">
                    <mxGeometry x="4380" y="-2575" width="60" height="30" as="geometry"/>
                </mxCell>
                <mxCell id="44" value="Contraseña" style="text;html=1;strokeColor=none;fillColor=none;align=left;verticalAlign=middle;whiteSpace=wrap;rounded=0;" parent="1" vertex="1">
                    <mxGeometry x="4380" y="-2495" width="80" height="30" as="geometry"/>
                </mxCell>
                <mxCell id="45" value="Repetir contraseña" style="text;html=1;strokeColor=none;fillColor=none;align=left;verticalAlign=middle;whiteSpace=wrap;rounded=0;" parent="1" vertex="1">
                    <mxGeometry x="4380" y="-2415" width="120" height="30" as="geometry"/>
                </mxCell>
                <mxCell id="46" value="ACEPTAR" style="rounded=1;whiteSpace=wrap;html=1;" parent="1" vertex="1">
                    <mxGeometry x="4410" y="-2325" width="120" height="30" as="geometry"/>
                </mxCell>
                <mxCell id="47" value="Registro" style="rounded=0;whiteSpace=wrap;html=1;" parent="1" vertex="1">
                    <mxGeometry x="4410" y="-2655" width="120" height="60" as="geometry"/>
                </mxCell>
                <mxCell id="48" value="YA EXISTE UN USUARIO&lt;br&gt;CON ESE NOMBRE" style="rounded=0;whiteSpace=wrap;html=1;" parent="1" vertex="1">
                    <mxGeometry x="4370" y="-2675" width="200" height="420" as="geometry"/>
                </mxCell>
                <mxCell id="49" value="OK" style="rounded=1;whiteSpace=wrap;html=1;fillColor=#1ba1e2;fontColor=#ffffff;strokeColor=#006EAF;" parent="1" vertex="1">
                    <mxGeometry x="4410" y="-2315" width="120" height="30" as="geometry"/>
                </mxCell>
                <mxCell id="51" value="" style="rounded=0;whiteSpace=wrap;html=1;" parent="1" vertex="1">
                    <mxGeometry x="4630" y="-2705" width="240" height="480" as="geometry"/>
                </mxCell>
                <mxCell id="52" value="usuario" style="rounded=1;whiteSpace=wrap;html=1;align=left;" parent="1" vertex="1">
                    <mxGeometry x="4660" y="-2545" width="180" height="30" as="geometry"/>
                </mxCell>
                <mxCell id="53" value="123" style="rounded=1;whiteSpace=wrap;html=1;align=left;" parent="1" vertex="1">
                    <mxGeometry x="4660" y="-2465" width="180" height="30" as="geometry"/>
                </mxCell>
                <mxCell id="54" value="123" style="rounded=1;whiteSpace=wrap;html=1;align=left;" parent="1" vertex="1">
                    <mxGeometry x="4660" y="-2385" width="180" height="30" as="geometry"/>
                </mxCell>
                <mxCell id="55" value="Usuario" style="text;html=1;strokeColor=none;fillColor=none;align=left;verticalAlign=middle;whiteSpace=wrap;rounded=0;" parent="1" vertex="1">
                    <mxGeometry x="4660" y="-2575" width="60" height="30" as="geometry"/>
                </mxCell>
                <mxCell id="56" value="Contraseña" style="text;html=1;strokeColor=none;fillColor=none;align=left;verticalAlign=middle;whiteSpace=wrap;rounded=0;" parent="1" vertex="1">
                    <mxGeometry x="4660" y="-2495" width="80" height="30" as="geometry"/>
                </mxCell>
                <mxCell id="57" value="Repetir contraseña" style="text;html=1;strokeColor=none;fillColor=none;align=left;verticalAlign=middle;whiteSpace=wrap;rounded=0;" parent="1" vertex="1">
                    <mxGeometry x="4660" y="-2415" width="120" height="30" as="geometry"/>
                </mxCell>
                <mxCell id="58" value="ACEPTAR" style="rounded=1;whiteSpace=wrap;html=1;" parent="1" vertex="1">
                    <mxGeometry x="4690" y="-2325" width="120" height="30" as="geometry"/>
                </mxCell>
                <mxCell id="59" value="Registro" style="rounded=0;whiteSpace=wrap;html=1;" parent="1" vertex="1">
                    <mxGeometry x="4690" y="-2655" width="120" height="60" as="geometry"/>
                </mxCell>
                <mxCell id="60" value="LA REPETICIÓN DE&lt;br&gt;CONTRASEÑA NO&lt;br&gt;COINCIDE" style="rounded=0;whiteSpace=wrap;html=1;" parent="1" vertex="1">
                    <mxGeometry x="4650" y="-2675" width="200" height="420" as="geometry"/>
                </mxCell>
                <mxCell id="61" value="OK" style="rounded=1;whiteSpace=wrap;html=1;fillColor=#1ba1e2;fontColor=#ffffff;strokeColor=#006EAF;" parent="1" vertex="1">
                    <mxGeometry x="4690" y="-2315" width="120" height="30" as="geometry"/>
                </mxCell>
                <mxCell id="63" value="" style="rounded=0;whiteSpace=wrap;html=1;" parent="1" vertex="1">
                    <mxGeometry x="4060" y="-3450" width="240" height="480" as="geometry"/>
                </mxCell>
                <mxCell id="64" value="" style="rounded=1;whiteSpace=wrap;html=1;" parent="1" vertex="1">
                    <mxGeometry x="4090" y="-3240" width="180" height="30" as="geometry"/>
                </mxCell>
                <mxCell id="65" value="" style="rounded=1;whiteSpace=wrap;html=1;" parent="1" vertex="1">
                    <mxGeometry x="4090" y="-3160" width="180" height="30" as="geometry"/>
                </mxCell>
                <mxCell id="66" value="Usuario" style="text;html=1;strokeColor=none;fillColor=none;align=left;verticalAlign=middle;whiteSpace=wrap;rounded=0;" parent="1" vertex="1">
                    <mxGeometry x="4090" y="-3270" width="60" height="30" as="geometry"/>
                </mxCell>
                <mxCell id="67" value="Contraseña" style="text;html=1;strokeColor=none;fillColor=none;align=left;verticalAlign=middle;whiteSpace=wrap;rounded=0;" parent="1" vertex="1">
                    <mxGeometry x="4090" y="-3190" width="100" height="30" as="geometry"/>
                </mxCell>
                <mxCell id="68" value="LOGO" style="ellipse;whiteSpace=wrap;html=1;aspect=fixed;" parent="1" vertex="1">
                    <mxGeometry x="4140" y="-3370" width="80" height="80" as="geometry"/>
                </mxCell>
                <mxCell id="69" value="ENTRAR" style="rounded=1;whiteSpace=wrap;html=1;" parent="1" vertex="1">
                    <mxGeometry x="4120" y="-3100" width="120" height="30" as="geometry"/>
                </mxCell>
                <mxCell id="70" value="Crea una cuenta aquí" style="text;html=1;strokeColor=none;fillColor=none;align=center;verticalAlign=middle;whiteSpace=wrap;rounded=0;" parent="1" vertex="1">
                    <mxGeometry x="4125" y="-3040" width="110" height="30" as="geometry"/>
                </mxCell>
                <mxCell id="71" value="/login" style="text;html=1;strokeColor=none;fillColor=none;align=center;verticalAlign=middle;whiteSpace=wrap;rounded=0;" parent="1" vertex="1">
                    <mxGeometry x="4060" y="-3480" width="60" height="30" as="geometry"/>
                </mxCell>
                <mxCell id="72" value="Credenciales incorrectas" style="rounded=0;whiteSpace=wrap;html=1;" parent="1" vertex="1">
                    <mxGeometry x="4080" y="-3420" width="200" height="420" as="geometry"/>
                </mxCell>
                <mxCell id="73" value="OK" style="rounded=1;whiteSpace=wrap;html=1;fillColor=#1ba1e2;fontColor=#ffffff;strokeColor=#006EAF;" parent="1" vertex="1">
                    <mxGeometry x="4120" y="-3070" width="120" height="30" as="geometry"/>
                </mxCell>
                <mxCell id="80" value="" style="rounded=0;whiteSpace=wrap;html=1;" parent="1" vertex="1">
                    <mxGeometry x="4910" y="-2705" width="240" height="480" as="geometry"/>
                </mxCell>
                <mxCell id="81" value="usuario" style="rounded=1;whiteSpace=wrap;html=1;align=left;" parent="1" vertex="1">
                    <mxGeometry x="4940" y="-2545" width="180" height="30" as="geometry"/>
                </mxCell>
                <mxCell id="82" value="123" style="rounded=1;whiteSpace=wrap;html=1;align=left;" parent="1" vertex="1">
                    <mxGeometry x="4940" y="-2465" width="180" height="30" as="geometry"/>
                </mxCell>
                <mxCell id="83" value="123" style="rounded=1;whiteSpace=wrap;html=1;align=left;" parent="1" vertex="1">
                    <mxGeometry x="4940" y="-2385" width="180" height="30" as="geometry"/>
                </mxCell>
                <mxCell id="84" value="Usuario" style="text;html=1;strokeColor=none;fillColor=none;align=left;verticalAlign=middle;whiteSpace=wrap;rounded=0;" parent="1" vertex="1">
                    <mxGeometry x="4940" y="-2575" width="60" height="30" as="geometry"/>
                </mxCell>
                <mxCell id="85" value="Contraseña" style="text;html=1;strokeColor=none;fillColor=none;align=left;verticalAlign=middle;whiteSpace=wrap;rounded=0;" parent="1" vertex="1">
                    <mxGeometry x="4940" y="-2495" width="80" height="30" as="geometry"/>
                </mxCell>
                <mxCell id="86" value="Repetir contraseña" style="text;html=1;strokeColor=none;fillColor=none;align=left;verticalAlign=middle;whiteSpace=wrap;rounded=0;" parent="1" vertex="1">
                    <mxGeometry x="4940" y="-2415" width="120" height="30" as="geometry"/>
                </mxCell>
                <mxCell id="87" value="ACEPTAR" style="rounded=1;whiteSpace=wrap;html=1;" parent="1" vertex="1">
                    <mxGeometry x="4970" y="-2325" width="120" height="30" as="geometry"/>
                </mxCell>
                <mxCell id="88" value="Registro" style="rounded=0;whiteSpace=wrap;html=1;" parent="1" vertex="1">
                    <mxGeometry x="4970" y="-2655" width="120" height="60" as="geometry"/>
                </mxCell>
                <mxCell id="89" value="HAY DATOS VACÍOS" style="rounded=0;whiteSpace=wrap;html=1;" parent="1" vertex="1">
                    <mxGeometry x="4930" y="-2675" width="200" height="420" as="geometry"/>
                </mxCell>
                <mxCell id="90" value="OK" style="rounded=1;whiteSpace=wrap;html=1;fillColor=#1ba1e2;fontColor=#ffffff;strokeColor=#006EAF;" parent="1" vertex="1">
                    <mxGeometry x="4970" y="-2315" width="120" height="30" as="geometry"/>
                </mxCell>
                <mxCell id="92" value="" style="rounded=0;whiteSpace=wrap;html=1;" parent="1" vertex="1">
                    <mxGeometry x="2547.5" y="-1365" width="240" height="480" as="geometry"/>
                </mxCell>
                <mxCell id="100" value="/myfeed" style="text;html=1;strokeColor=none;fillColor=none;align=center;verticalAlign=middle;whiteSpace=wrap;rounded=0;" parent="1" vertex="1">
                    <mxGeometry x="2547.5" y="-1395" width="60" height="30" as="geometry"/>
                </mxCell>
                <mxCell id="105" value="CREAR CUENTA" style="rounded=1;whiteSpace=wrap;html=1;fillColor=#1ba1e2;fontColor=#ffffff;strokeColor=#006EAF;" parent="1" vertex="1">
                    <mxGeometry x="3840" y="-3040" width="120" height="30" as="geometry"/>
                </mxCell>
                <mxCell id="107" value="&lt;h1 style=&quot;text-align: left;&quot;&gt;&lt;font color=&quot;#000000&quot;&gt;Componentes y comportamiento de MyFeedPage&lt;/font&gt;&lt;/h1&gt;&lt;p style=&quot;text-align: left;&quot;&gt;&lt;font color=&quot;#000000&quot;&gt;- se muestran todos los posts subidos en la red social (menos los propios) ordenados cronólogicamente&lt;/font&gt;&lt;/p&gt;&lt;p style=&quot;text-align: left;&quot;&gt;&lt;font color=&quot;#000000&quot;&gt;&amp;gt; h1 (nombre de la red social)&lt;/font&gt;&lt;/p&gt;&lt;p style=&quot;text-align: left;&quot;&gt;&lt;font color=&quot;#000000&quot;&gt;&amp;gt; PostCardContainer (article; con varios PostCard):&lt;/font&gt;&lt;/p&gt;&lt;p style=&quot;text-align: left;&quot;&gt;&lt;font color=&quot;#000000&quot;&gt;&lt;span style=&quot;&quot;&gt;&#9;&lt;/span&gt;&lt;span style=&quot;white-space: pre;&quot;&gt;&#9;&lt;/span&gt;&amp;gt; PostCard (article):&lt;/font&gt;&lt;/p&gt;&lt;p style=&quot;text-align: left;&quot;&gt;&lt;font color=&quot;#000000&quot;&gt;&lt;span style=&quot;&quot;&gt;&#9;&lt;/span&gt;&lt;span style=&quot;&quot;&gt;&#9;&lt;/span&gt;&lt;span style=&quot;white-space: pre;&quot;&gt;&#9;&lt;span style=&quot;white-space: pre;&quot;&gt;&#9;&lt;/span&gt;&lt;/span&gt;&amp;gt; ShortProfileCard (section; apretarlo redirige a /profiles/:id):&lt;br&gt;&lt;/font&gt;&lt;/p&gt;&lt;p style=&quot;text-align: left;&quot;&gt;&lt;font color=&quot;#000000&quot;&gt;&lt;span style=&quot;&quot;&gt;&#9;&lt;span style=&quot;&quot;&gt;&#9;&lt;span style=&quot;&quot;&gt;&#9;&lt;/span&gt;&lt;/span&gt;&lt;/span&gt;&lt;span style=&quot;white-space: pre;&quot;&gt;&#9;&lt;/span&gt;&lt;span style=&quot;white-space: pre;&quot;&gt;&#9;&lt;span style=&quot;white-space: pre;&quot;&gt;&#9;&lt;/span&gt;&lt;/span&gt;&amp;gt;&amp;nbsp;img (foto de perfil del autor del post)&lt;/font&gt;&lt;/p&gt;&lt;p style=&quot;text-align: left;&quot;&gt;&lt;font color=&quot;#000000&quot;&gt;&lt;span style=&quot;&quot;&gt;&#9;&lt;span style=&quot;&quot;&gt;&#9;&lt;span style=&quot;&quot;&gt;&#9;&lt;/span&gt;&lt;/span&gt;&lt;/span&gt;&lt;span style=&quot;white-space: pre;&quot;&gt;&#9;&lt;/span&gt;&lt;span style=&quot;white-space: pre;&quot;&gt;&#9;&lt;span style=&quot;white-space: pre;&quot;&gt;&#9;&lt;/span&gt;&lt;/span&gt;&amp;gt;&amp;nbsp;h2 (nombre de usuario del autor del post)&lt;br&gt;&lt;/font&gt;&lt;/p&gt;&lt;p style=&quot;text-align: left;&quot;&gt;&lt;font color=&quot;#000000&quot;&gt;&lt;span style=&quot;&quot;&gt;&#9;&lt;span style=&quot;&quot;&gt;&#9;&lt;/span&gt;&lt;span style=&quot;white-space: pre;&quot;&gt;&#9;&lt;/span&gt;&lt;span style=&quot;white-space: pre;&quot;&gt;&#9;&lt;/span&gt;&amp;gt;&lt;/span&gt;&amp;nbsp;img (imagen del post)&lt;/font&gt;&lt;/p&gt;&lt;p style=&quot;text-align: left;&quot;&gt;&lt;font color=&quot;#000000&quot;&gt;&lt;span style=&quot;&quot;&gt;&#9;&lt;/span&gt;&lt;span style=&quot;&quot;&gt;&#9;&lt;/span&gt;&lt;span style=&quot;white-space: pre;&quot;&gt;&#9;&lt;/span&gt;&lt;span style=&quot;white-space: pre;&quot;&gt;&#9;&lt;/span&gt;&amp;gt;&amp;nbsp;p (cantidad de likes)&lt;br&gt;&lt;/font&gt;&lt;/p&gt;&lt;p style=&quot;text-align: left;&quot;&gt;&lt;font color=&quot;#000000&quot;&gt;&lt;span style=&quot;&quot;&gt;&#9;&lt;/span&gt;&lt;span style=&quot;&quot;&gt;&#9;&lt;/span&gt;&lt;span style=&quot;white-space: pre;&quot;&gt;&#9;&lt;/span&gt;&lt;span style=&quot;white-space: pre;&quot;&gt;&#9;&lt;/span&gt;&amp;gt;&amp;nbsp;p (descripción del post)&lt;br&gt;&lt;/font&gt;&lt;/p&gt;&lt;p style=&quot;text-align: left;&quot;&gt;&lt;font color=&quot;#000000&quot;&gt;&lt;span style=&quot;&quot;&gt;&#9;&lt;/span&gt;&lt;span style=&quot;&quot;&gt;&#9;&lt;/span&gt;&lt;span style=&quot;white-space: pre;&quot;&gt;&#9;&lt;/span&gt;&lt;span style=&quot;white-space: pre;&quot;&gt;&#9;&lt;/span&gt;&amp;gt;&amp;nbsp;p (cantidad de comentarios)&lt;br&gt;&lt;/font&gt;&lt;/p&gt;&lt;p style=&quot;text-align: left;&quot;&gt;&lt;font color=&quot;#000000&quot;&gt;&lt;span style=&quot;&quot;&gt;&#9;&lt;/span&gt;&lt;span style=&quot;&quot;&gt;&#9;&lt;/span&gt;&lt;span style=&quot;white-space: pre;&quot;&gt;&#9;&lt;/span&gt;&lt;span style=&quot;white-space: pre;&quot;&gt;&#9;&lt;/span&gt;&amp;gt; GiveLikeButton (button para dar me gusta, aumenta la cantidad de likes de ese post)&lt;br&gt;&lt;/font&gt;&lt;/p&gt;&lt;p style=&quot;text-align: left;&quot;&gt;&lt;font color=&quot;#000000&quot;&gt;&lt;span style=&quot;&quot;&gt;&#9;&lt;/span&gt;&lt;span style=&quot;&quot;&gt;&#9;&lt;/span&gt;&lt;span style=&quot;white-space: pre;&quot;&gt;&#9;&lt;/span&gt;&lt;span style=&quot;white-space: pre;&quot;&gt;&#9;&lt;/span&gt;&amp;gt; OpenCommentSectionButton (button que abre CommentsSection)&lt;/font&gt;&lt;/p&gt;&lt;p style=&quot;text-align: left;&quot;&gt;&lt;span style=&quot;color: rgb(0, 0, 0); background-color: initial;&quot;&gt;&lt;span style=&quot;white-space: pre;&quot;&gt;&#9;&lt;/span&gt;&amp;gt; CommentSection (section; los comentarios propios van arriba del todo y sin link al perfil):&lt;/span&gt;&lt;/p&gt;&lt;p style=&quot;text-align: left;&quot;&gt;&lt;span style=&quot;color: rgb(0, 0, 0); background-color: initial;&quot;&gt;&lt;span style=&quot;white-space: pre;&quot;&gt;&#9;&lt;/span&gt;&lt;span style=&quot;white-space: pre;&quot;&gt;&#9;&lt;/span&gt;&amp;gt; button que cierra la sección de comentarios.&lt;br&gt;&lt;/span&gt;&lt;/p&gt;&lt;p style=&quot;text-align: left;&quot;&gt;&lt;font color=&quot;#000000&quot;&gt;&lt;span style=&quot;&quot;&gt;&#9;&lt;span style=&quot;&quot;&gt;&#9;&lt;/span&gt;&lt;/span&gt;&lt;span style=&quot;white-space: pre;&quot;&gt;&#9;&lt;span style=&quot;white-space: pre;&quot;&gt;&#9;&lt;/span&gt;&lt;/span&gt;&amp;gt; Comment (div; si es un comentario no propio, apretarlo redirige a /profiles/:id):&lt;br&gt;&lt;/font&gt;&lt;/p&gt;&lt;p style=&quot;text-align: left;&quot;&gt;&lt;font color=&quot;#000000&quot;&gt;&lt;span style=&quot;&quot;&gt;&#9;&lt;/span&gt;&lt;span style=&quot;&quot;&gt;&#9;&lt;span style=&quot;&quot;&gt;&#9;&lt;/span&gt;&lt;/span&gt;&lt;span style=&quot;white-space: pre;&quot;&gt;&#9;&lt;span style=&quot;white-space: pre;&quot;&gt;&#9;&lt;span style=&quot;white-space: pre;&quot;&gt;&#9;&lt;/span&gt;&lt;/span&gt;&lt;/span&gt;&amp;gt;&amp;nbsp;img (foto de perfil del autor del comentario)&lt;br&gt;&lt;/font&gt;&lt;/p&gt;&lt;p style=&quot;text-align: left;&quot;&gt;&lt;font color=&quot;#000000&quot;&gt;&lt;span style=&quot;&quot;&gt;&#9;&lt;/span&gt;&lt;span style=&quot;&quot;&gt;&#9;&lt;span style=&quot;&quot;&gt;&#9;&lt;/span&gt;&lt;/span&gt;&lt;span style=&quot;white-space: pre;&quot;&gt;&#9;&lt;span style=&quot;white-space: pre;&quot;&gt;&#9;&lt;span style=&quot;white-space: pre;&quot;&gt;&#9;&lt;/span&gt;&lt;/span&gt;&lt;/span&gt;&amp;gt;&amp;nbsp;h3 (nombre de usuario del autor del comentario)&lt;br&gt;&lt;/font&gt;&lt;/p&gt;&lt;p style=&quot;text-align: left;&quot;&gt;&lt;font color=&quot;#000000&quot;&gt;&lt;span style=&quot;&quot;&gt;&#9;&lt;/span&gt;&lt;span style=&quot;&quot;&gt;&#9;&lt;span style=&quot;&quot;&gt;&#9;&lt;/span&gt;&lt;/span&gt;&lt;span style=&quot;white-space: pre;&quot;&gt;&#9;&lt;span style=&quot;white-space: pre;&quot;&gt;&#9;&lt;span style=&quot;white-space: pre;&quot;&gt;&#9;&lt;/span&gt;&lt;/span&gt;&lt;/span&gt;&amp;gt;&amp;nbsp;p (lo escrito en el comentario)&lt;/font&gt;&lt;/p&gt;&lt;p style=&quot;text-align: left;&quot;&gt;&lt;font color=&quot;#000000&quot;&gt;&lt;span style=&quot;white-space: pre;&quot;&gt;&#9;&lt;/span&gt;&lt;span style=&quot;white-space: pre;&quot;&gt;&#9;&lt;/span&gt;&amp;gt; MyComment (div; comentarios propios con la opción de editarlos o eliminarlos):&lt;br&gt;&lt;/font&gt;&lt;/p&gt;&lt;p style=&quot;text-align: left;&quot;&gt;&lt;font color=&quot;#000000&quot;&gt;&lt;span style=&quot;white-space: pre;&quot;&gt;&#9;&lt;/span&gt;&lt;span style=&quot;white-space: pre;&quot;&gt;&#9;&lt;/span&gt;&lt;span style=&quot;white-space: pre;&quot;&gt;&#9;&lt;/span&gt;&amp;gt; img (foto de perfil propia)&lt;br&gt;&lt;/font&gt;&lt;/p&gt;&lt;p style=&quot;text-align: left;&quot;&gt;&lt;font color=&quot;#000000&quot;&gt;&lt;span style=&quot;white-space: pre;&quot;&gt;&#9;&lt;/span&gt;&lt;span style=&quot;white-space: pre;&quot;&gt;&#9;&lt;/span&gt;&lt;span style=&quot;white-space: pre;&quot;&gt;&#9;&lt;/span&gt;&amp;gt; h3 (nombre propio de usuario)&lt;br&gt;&lt;/font&gt;&lt;/p&gt;&lt;p style=&quot;text-align: left;&quot;&gt;&lt;font color=&quot;#000000&quot;&gt;&lt;span style=&quot;white-space: pre;&quot;&gt;&#9;&lt;/span&gt;&lt;span style=&quot;white-space: pre;&quot;&gt;&#9;&lt;/span&gt;&lt;span style=&quot;white-space: pre;&quot;&gt;&#9;&lt;/span&gt;&amp;gt; p (lo escrito)&lt;br&gt;&lt;/font&gt;&lt;/p&gt;&lt;p style=&quot;text-align: left;&quot;&gt;&lt;font color=&quot;#000000&quot;&gt;&lt;span style=&quot;white-space: pre;&quot;&gt;&#9;&lt;/span&gt;&lt;span style=&quot;white-space: pre;&quot;&gt;&#9;&lt;/span&gt;&lt;span style=&quot;white-space: pre;&quot;&gt;&#9;&lt;/span&gt;&amp;gt; DeleteCommentButton (button que elimina el comentario propio)&lt;br&gt;&lt;/font&gt;&lt;/p&gt;&lt;p style=&quot;text-align: left;&quot;&gt;&lt;font color=&quot;#000000&quot;&gt;&lt;span style=&quot;white-space: pre;&quot;&gt;&#9;&lt;/span&gt;&lt;span style=&quot;white-space: pre;&quot;&gt;&#9;&lt;/span&gt;&lt;span style=&quot;white-space: pre;&quot;&gt;&#9;&lt;/span&gt;&amp;gt; EditCommentButton (button que transforma el p (contenido del comentario) en un input y&lt;br&gt;&lt;/font&gt;&lt;/p&gt;&lt;p style=&quot;text-align: left;&quot;&gt;&lt;font color=&quot;#000000&quot;&gt;&lt;span style=&quot;white-space: pre;&quot;&gt;&#9;&lt;/span&gt;&lt;span style=&quot;white-space: pre;&quot;&gt;&#9;&lt;/span&gt;&lt;span style=&quot;white-space: pre;&quot;&gt;&#9;&lt;/span&gt;le coloca el focus. Cuando se apreta el button de nuevo, edita el comentario.&lt;br&gt;&lt;/font&gt;&lt;/p&gt;&lt;p style=&quot;text-align: left;&quot;&gt;&lt;font color=&quot;#000000&quot;&gt;&lt;span style=&quot;&quot;&gt;&#9;&lt;/span&gt;&lt;span style=&quot;white-space: pre;&quot;&gt;&#9;&lt;span style=&quot;white-space: pre;&quot;&gt;&#9;&lt;/span&gt;&lt;/span&gt;&amp;gt; CreateCommentForm (form):&lt;br&gt;&lt;/font&gt;&lt;/p&gt;&lt;p style=&quot;text-align: left;&quot;&gt;&lt;font color=&quot;#000000&quot;&gt;&lt;span style=&quot;&quot;&gt;&#9;&lt;span style=&quot;&quot;&gt;&#9;&lt;/span&gt;&lt;/span&gt;&lt;span style=&quot;white-space: pre;&quot;&gt;&#9;&lt;/span&gt;&lt;span style=&quot;white-space: pre;&quot;&gt;&#9;&lt;span style=&quot;white-space: pre;&quot;&gt;&#9;&lt;/span&gt;&lt;/span&gt;&amp;gt; NormalInput (input para el contenido del comentario)&lt;br&gt;&lt;/font&gt;&lt;/p&gt;&lt;p style=&quot;text-align: left;&quot;&gt;&lt;font color=&quot;#000000&quot;&gt;&lt;span style=&quot;&quot;&gt;&#9;&lt;span style=&quot;&quot;&gt;&#9;&lt;/span&gt;&lt;/span&gt;&lt;span style=&quot;white-space: pre;&quot;&gt;&#9;&lt;/span&gt;&lt;span style=&quot;white-space: pre;&quot;&gt;&#9;&lt;span style=&quot;white-space: pre;&quot;&gt;&#9;&lt;/span&gt;&lt;/span&gt;&amp;gt; CreateCommentButton (button para crear el comentario)&lt;/font&gt;&lt;/p&gt;&lt;p style=&quot;text-align: left;&quot;&gt;&lt;font color=&quot;#000000&quot;&gt;&amp;gt; Navbar (nav):&lt;/font&gt;&lt;/p&gt;&lt;p style=&quot;text-align: left;&quot;&gt;&lt;font color=&quot;#000000&quot;&gt;&lt;span style=&quot;&quot;&gt;&#9;&lt;/span&gt;&lt;span style=&quot;white-space: pre;&quot;&gt;&#9;&lt;/span&gt;&amp;gt;&amp;nbsp;GoToMyFeedPageButton (button que redirige a /myfeed)&lt;/font&gt;&lt;/p&gt;&lt;p style=&quot;text-align: left;&quot;&gt;&lt;font color=&quot;#000000&quot;&gt;&lt;span style=&quot;&quot;&gt;&#9;&lt;/span&gt;&lt;span style=&quot;white-space: pre;&quot;&gt;&#9;&lt;/span&gt;&amp;gt;&amp;nbsp;GoToCreatePostPageButton (button que redirige a /createpost)&lt;/font&gt;&lt;/p&gt;&lt;p style=&quot;text-align: left;&quot;&gt;&lt;font color=&quot;#000000&quot;&gt;&lt;span style=&quot;&quot;&gt;&#9;&lt;/span&gt;&lt;span style=&quot;white-space: pre;&quot;&gt;&#9;&lt;/span&gt;&amp;gt;&amp;nbsp;GoToMyProfilePageButton (img que redirige a /myprofile)&lt;/font&gt;&lt;/p&gt;" style="text;html=1;strokeColor=none;fillColor=none;spacing=5;spacingTop=-20;whiteSpace=wrap;overflow=hidden;rounded=0;align=center;" parent="1" vertex="1">
                    <mxGeometry x="3092.5" y="-1520" width="610" height="990" as="geometry"/>
                </mxCell>
                <mxCell id="109" value="&lt;font color=&quot;#ffffff&quot;&gt;imagen&lt;/font&gt;" style="whiteSpace=wrap;html=1;aspect=fixed;fontSize=40;fontColor=#ffffff;fillColor=#d80073;strokeColor=#A50040;" parent="1" vertex="1">
                    <mxGeometry x="2567.5" y="-1285" width="205" height="205" as="geometry"/>
                </mxCell>
                <mxCell id="110" value="" style="rounded=1;whiteSpace=wrap;html=1;fontSize=40;fontColor=#FFFFFF;" parent="1" vertex="1">
                    <mxGeometry x="2567.5" y="-1320" width="205" height="35" as="geometry"/>
                </mxCell>
                <mxCell id="111" value="" style="ellipse;whiteSpace=wrap;html=1;aspect=fixed;fontSize=40;fontColor=#ffffff;fillColor=#d80073;strokeColor=#A50040;" parent="1" vertex="1">
                    <mxGeometry x="2572.5" y="-1317.5" width="30" height="30" as="geometry"/>
                </mxCell>
                <mxCell id="112" value="&lt;span style=&quot;font-size: 12px;&quot;&gt;Example&lt;/span&gt;" style="text;html=1;strokeColor=none;fillColor=none;align=left;verticalAlign=middle;whiteSpace=wrap;rounded=0;fontSize=40;fontColor=#FFFFFF;" parent="1" vertex="1">
                    <mxGeometry x="2617.5" y="-1320" width="140" height="20" as="geometry"/>
                </mxCell>
                <mxCell id="113" value="" style="rounded=0;whiteSpace=wrap;html=1;fontSize=12;fontColor=#FFFFFF;" parent="1" vertex="1">
                    <mxGeometry x="2547.5" y="-930" width="240" height="45" as="geometry"/>
                </mxCell>
                <mxCell id="114" value="&lt;font style=&quot;font-size: 7px;&quot;&gt;INICIO (FEED)&lt;/font&gt;" style="rounded=1;whiteSpace=wrap;html=1;fontSize=12;fontColor=#ffffff;fillColor=#1ba1e2;strokeColor=#006EAF;" parent="1" vertex="1">
                    <mxGeometry x="2557.5" y="-920" width="60" height="25" as="geometry"/>
                </mxCell>
                <mxCell id="117" value="&lt;font style=&quot;font-size: 9px;&quot;&gt;PERFIL&lt;/font&gt;" style="ellipse;whiteSpace=wrap;html=1;fontSize=12;fontColor=#ffffff;fillColor=#d80073;strokeColor=#A50040;" parent="1" vertex="1">
                    <mxGeometry x="2710" y="-927.5" width="60" height="40" as="geometry"/>
                </mxCell>
                <mxCell id="118" value="Nombre de la red social" style="rounded=0;whiteSpace=wrap;html=1;fontSize=12;fontColor=#FFFFFF;" parent="1" vertex="1">
                    <mxGeometry x="2547.5" y="-1365" width="240" height="35" as="geometry"/>
                </mxCell>
                <mxCell id="119" value="&lt;font style=&quot;font-size: 8px;&quot;&gt;SUBIR&lt;br&gt;FOTO&lt;/font&gt;" style="ellipse;whiteSpace=wrap;html=1;aspect=fixed;fontSize=12;fontColor=#ffffff;fillColor=#1ba1e2;strokeColor=#006EAF;" parent="1" vertex="1">
                    <mxGeometry x="2648.75" y="-927.5" width="37.5" height="37.5" as="geometry"/>
                </mxCell>
                <mxCell id="121" value="" style="rounded=0;whiteSpace=wrap;html=1;fontSize=8;fontColor=#FFFFFF;" parent="1" vertex="1">
                    <mxGeometry x="2567.5" y="-1077.5" width="202.5" height="52.5" as="geometry"/>
                </mxCell>
                <mxCell id="122" value="Número de likes&lt;br&gt;Descripción de la foto&lt;br&gt;Número de comentarios" style="text;html=1;strokeColor=none;fillColor=none;align=left;verticalAlign=middle;whiteSpace=wrap;rounded=0;fontSize=8;fontColor=#FFFFFF;" parent="1" vertex="1">
                    <mxGeometry x="2570" y="-1077.5" width="200" height="32.5" as="geometry"/>
                </mxCell>
                <mxCell id="127" value="ME GUSTA" style="ellipse;whiteSpace=wrap;html=1;fontSize=9;fontColor=#ffffff;fillColor=#1ba1e2;strokeColor=#006EAF;" parent="1" vertex="1">
                    <mxGeometry x="2696.25" y="-1071.25" width="60" height="20" as="geometry"/>
                </mxCell>
                <mxCell id="130" value="" style="rounded=0;whiteSpace=wrap;html=1;" parent="1" vertex="1">
                    <mxGeometry x="4195" y="-1335" width="240" height="480" as="geometry"/>
                </mxCell>
                <mxCell id="132" value="&lt;font style=&quot;font-size: 15px;&quot;&gt;Nombre de usuario&lt;/font&gt;" style="rounded=0;whiteSpace=wrap;html=1;fontSize=9;fontColor=#FFFFFF;" parent="1" vertex="1">
                    <mxGeometry x="4195" y="-1335" width="235" height="60" as="geometry"/>
                </mxCell>
                <mxCell id="133" value="FOTO&lt;br&gt;DE PERFIL" style="ellipse;whiteSpace=wrap;html=1;aspect=fixed;fontSize=15;fontColor=#ffffff;fillColor=#d80073;strokeColor=#A50040;" parent="1" vertex="1">
                    <mxGeometry x="4210" y="-1265" width="80" height="80" as="geometry"/>
                </mxCell>
                <mxCell id="134" value="Cantidad&lt;br&gt;de posts" style="text;html=1;strokeColor=none;fillColor=none;align=center;verticalAlign=middle;whiteSpace=wrap;rounded=0;fontSize=15;fontColor=#FFFFFF;" parent="1" vertex="1">
                    <mxGeometry x="4330" y="-1240" width="60" height="30" as="geometry"/>
                </mxCell>
                <mxCell id="135" value="" style="rounded=0;whiteSpace=wrap;html=1;fontSize=12;fontColor=#FFFFFF;" parent="1" vertex="1">
                    <mxGeometry x="4195" y="-900" width="240" height="45" as="geometry"/>
                </mxCell>
                <mxCell id="136" value="&lt;font style=&quot;font-size: 7px;&quot;&gt;INICIO (FEED)&lt;/font&gt;" style="rounded=1;whiteSpace=wrap;html=1;fontSize=12;fontColor=#ffffff;fillColor=#1ba1e2;strokeColor=#006EAF;" parent="1" vertex="1">
                    <mxGeometry x="4205" y="-890" width="60" height="25" as="geometry"/>
                </mxCell>
                <mxCell id="137" value="&lt;font style=&quot;font-size: 9px;&quot;&gt;PERFIL&lt;/font&gt;" style="ellipse;whiteSpace=wrap;html=1;fontSize=12;fontColor=#ffffff;fillColor=#d80073;strokeColor=#A50040;" parent="1" vertex="1">
                    <mxGeometry x="4357.5" y="-897.5" width="60" height="40" as="geometry"/>
                </mxCell>
                <mxCell id="138" value="&lt;font style=&quot;font-size: 8px;&quot;&gt;SUBIR&lt;br&gt;FOTO&lt;/font&gt;" style="ellipse;whiteSpace=wrap;html=1;aspect=fixed;fontSize=12;fontColor=#ffffff;fillColor=#1ba1e2;strokeColor=#006EAF;" parent="1" vertex="1">
                    <mxGeometry x="4296.25" y="-900" width="37.5" height="37.5" as="geometry"/>
                </mxCell>
                <mxCell id="139" value="&lt;font style=&quot;font-size: 9px;&quot;&gt;EDITAR PERFIL&lt;/font&gt;" style="rounded=1;whiteSpace=wrap;html=1;fontSize=15;fontColor=#ffffff;fillColor=#1ba1e2;strokeColor=#006EAF;" parent="1" vertex="1">
                    <mxGeometry x="4320" y="-1175" width="100" height="40" as="geometry"/>
                </mxCell>
                <mxCell id="140" value="" style="verticalLabelPosition=bottom;shadow=0;dashed=0;align=center;html=1;verticalAlign=top;strokeWidth=1;shape=mxgraph.mockup.graphics.simpleIcon;strokeColor=#A50040;fillColor=#d80073;fontSize=15;fontColor=#ffffff;" parent="1" vertex="1">
                    <mxGeometry x="4215" y="-1125" width="50" height="50" as="geometry"/>
                </mxCell>
                <mxCell id="141" value="" style="verticalLabelPosition=bottom;shadow=0;dashed=0;align=center;html=1;verticalAlign=top;strokeWidth=1;shape=mxgraph.mockup.graphics.simpleIcon;strokeColor=#A50040;fillColor=#d80073;fontSize=15;fontColor=#ffffff;" parent="1" vertex="1">
                    <mxGeometry x="4290" y="-1125" width="50" height="50" as="geometry"/>
                </mxCell>
                <mxCell id="142" value="" style="verticalLabelPosition=bottom;shadow=0;dashed=0;align=center;html=1;verticalAlign=top;strokeWidth=1;shape=mxgraph.mockup.graphics.simpleIcon;strokeColor=#A50040;fillColor=#d80073;fontSize=15;fontColor=#ffffff;" parent="1" vertex="1">
                    <mxGeometry x="4365" y="-1125" width="50" height="50" as="geometry"/>
                </mxCell>
                <mxCell id="143" value="" style="verticalLabelPosition=bottom;shadow=0;dashed=0;align=center;html=1;verticalAlign=top;strokeWidth=1;shape=mxgraph.mockup.graphics.simpleIcon;strokeColor=#A50040;fillColor=#d80073;fontSize=15;fontColor=#ffffff;" parent="1" vertex="1">
                    <mxGeometry x="4215" y="-1050" width="50" height="50" as="geometry"/>
                </mxCell>
                <mxCell id="144" value="" style="verticalLabelPosition=bottom;shadow=0;dashed=0;align=center;html=1;verticalAlign=top;strokeWidth=1;shape=mxgraph.mockup.graphics.simpleIcon;strokeColor=#A50040;fillColor=#d80073;fontSize=15;fontColor=#ffffff;" parent="1" vertex="1">
                    <mxGeometry x="4290" y="-1050" width="50" height="50" as="geometry"/>
                </mxCell>
                <mxCell id="145" value="" style="verticalLabelPosition=bottom;shadow=0;dashed=0;align=center;html=1;verticalAlign=top;strokeWidth=1;shape=mxgraph.mockup.graphics.simpleIcon;strokeColor=#A50040;fillColor=#d80073;fontSize=15;fontColor=#ffffff;" parent="1" vertex="1">
                    <mxGeometry x="4365" y="-1050" width="50" height="50" as="geometry"/>
                </mxCell>
                <mxCell id="146" value="" style="verticalLabelPosition=bottom;shadow=0;dashed=0;align=center;html=1;verticalAlign=top;strokeWidth=1;shape=mxgraph.mockup.graphics.simpleIcon;strokeColor=#A50040;fillColor=#d80073;fontSize=15;fontColor=#ffffff;" parent="1" vertex="1">
                    <mxGeometry x="4215" y="-975" width="50" height="50" as="geometry"/>
                </mxCell>
                <mxCell id="147" value="" style="verticalLabelPosition=bottom;shadow=0;dashed=0;align=center;html=1;verticalAlign=top;strokeWidth=1;shape=mxgraph.mockup.graphics.simpleIcon;strokeColor=#A50040;fillColor=#d80073;fontSize=15;fontColor=#ffffff;" parent="1" vertex="1">
                    <mxGeometry x="4290" y="-975" width="50" height="50" as="geometry"/>
                </mxCell>
                <mxCell id="148" value="" style="verticalLabelPosition=bottom;shadow=0;dashed=0;align=center;html=1;verticalAlign=top;strokeWidth=1;shape=mxgraph.mockup.graphics.simpleIcon;strokeColor=#A50040;fillColor=#d80073;fontSize=15;fontColor=#ffffff;" parent="1" vertex="1">
                    <mxGeometry x="4365" y="-975" width="50" height="50" as="geometry"/>
                </mxCell>
                <mxCell id="218" value="/myprofile" style="text;html=1;strokeColor=none;fillColor=none;align=center;verticalAlign=middle;whiteSpace=wrap;rounded=0;" parent="1" vertex="1">
                    <mxGeometry x="4195" y="-1365" width="95" height="30" as="geometry"/>
                </mxCell>
                <mxCell id="220" value="INPUT" style="rounded=1;whiteSpace=wrap;html=1;fillColor=#a20025;fontColor=#ffffff;strokeColor=#6F0000;" parent="1" vertex="1">
                    <mxGeometry x="2749.69" y="-3140" width="120" height="40" as="geometry"/>
                </mxCell>
                <mxCell id="221" value="BUTTON" style="rounded=1;whiteSpace=wrap;html=1;fillColor=#1ba1e2;fontColor=#ffffff;strokeColor=#006EAF;" parent="1" vertex="1">
                    <mxGeometry x="2749.69" y="-3060" width="120" height="40" as="geometry"/>
                </mxCell>
                <mxCell id="223" value="IMG" style="rounded=1;whiteSpace=wrap;html=1;fillColor=#d80073;fontColor=#ffffff;strokeColor=#A50040;" parent="1" vertex="1">
                    <mxGeometry x="2749.69" y="-2980" width="120" height="40" as="geometry"/>
                </mxCell>
                <mxCell id="225" value="&lt;font style=&quot;font-size: 22px;&quot;&gt;REFERENCIAS&lt;/font&gt;" style="text;html=1;strokeColor=none;fillColor=none;align=center;verticalAlign=middle;rounded=0;fontColor=#141414;" parent="1" vertex="1">
                    <mxGeometry x="2789.69" y="-3250" width="60" height="30" as="geometry"/>
                </mxCell>
                <mxCell id="231" value="/register" style="text;html=1;strokeColor=none;fillColor=none;align=center;verticalAlign=middle;whiteSpace=wrap;rounded=0;" parent="1" vertex="1">
                    <mxGeometry x="4070" y="-2735" width="60" height="30" as="geometry"/>
                </mxCell>
                <mxCell id="232" value="/register" style="text;html=1;strokeColor=none;fillColor=none;align=center;verticalAlign=middle;whiteSpace=wrap;rounded=0;" parent="1" vertex="1">
                    <mxGeometry x="4350" y="-2735" width="60" height="30" as="geometry"/>
                </mxCell>
                <mxCell id="233" value="/register" style="text;html=1;strokeColor=none;fillColor=none;align=center;verticalAlign=middle;whiteSpace=wrap;rounded=0;" parent="1" vertex="1">
                    <mxGeometry x="4630" y="-2735" width="60" height="30" as="geometry"/>
                </mxCell>
                <mxCell id="234" value="/register" style="text;html=1;strokeColor=none;fillColor=none;align=center;verticalAlign=middle;whiteSpace=wrap;rounded=0;" parent="1" vertex="1">
                    <mxGeometry x="4910" y="-2735" width="60" height="30" as="geometry"/>
                </mxCell>
                <mxCell id="235" value="&lt;font color=&quot;#000000&quot;&gt;TERMINADO&lt;/font&gt;" style="text;html=1;strokeColor=none;fillColor=none;align=center;verticalAlign=middle;whiteSpace=wrap;rounded=0;fontSize=20;fontColor=#FF9933;" parent="1" vertex="1">
                    <mxGeometry x="4090" y="-3532.5" width="360" height="30" as="geometry"/>
                </mxCell>
                <mxCell id="243" value="&lt;h1 style=&quot;text-align: left;&quot;&gt;&lt;font color=&quot;#000000&quot;&gt;Componentes y comportamiento de MyProfilePage&lt;/font&gt;&lt;/h1&gt;&lt;p style=&quot;text-align: left;&quot;&gt;&lt;font color=&quot;#000000&quot;&gt;&amp;gt; h1 (nombre de usuario)&lt;/font&gt;&lt;/p&gt;&lt;p style=&quot;text-align: left;&quot;&gt;&lt;font color=&quot;#000000&quot;&gt;&amp;gt; p (cantidad de posts del usuario)&lt;/font&gt;&lt;/p&gt;&lt;p style=&quot;text-align: left;&quot;&gt;&lt;font color=&quot;#000000&quot;&gt;&amp;gt; LogoutButton (button que cierra la sesión y redirige a /login)&lt;/font&gt;&lt;/p&gt;&lt;p style=&quot;text-align: left;&quot;&gt;&lt;font color=&quot;#000000&quot;&gt;&amp;gt; GoToEditMyProfilePageButton (redirige a /myprofile/edit)&lt;/font&gt;&lt;/p&gt;&lt;p style=&quot;text-align: left;&quot;&gt;&lt;font color=&quot;#000000&quot;&gt;&amp;gt; MyPostsContainer (article)&lt;/font&gt;&lt;/p&gt;&lt;span style=&quot;color: rgb(0, 0, 0);&quot;&gt;&lt;div style=&quot;text-align: left;&quot;&gt;&lt;span style=&quot;background-color: initial; white-space: pre;&quot;&gt;&#9;&lt;/span&gt;&lt;span style=&quot;background-color: initial;&quot;&gt;- se muestran todas las imágenes subidas por el usuario en la red social ordenadas cronólogicamente&lt;/span&gt;&lt;/div&gt;&lt;/span&gt;&lt;span style=&quot;color: rgb(0, 0, 0); background-color: initial;&quot;&gt;&lt;div style=&quot;text-align: left;&quot;&gt;&lt;span style=&quot;background-color: initial;&quot;&gt;&lt;span style=&quot;white-space: pre;&quot;&gt;&#9;&lt;/span&gt;- con varias img que redirigen a /myposts/:id&lt;/span&gt;&lt;/div&gt;&lt;/span&gt;&lt;p style=&quot;text-align: left;&quot;&gt;&lt;font color=&quot;#000000&quot;&gt;&amp;gt; Navbar (nav):&lt;/font&gt;&lt;/p&gt;&lt;p style=&quot;text-align: left;&quot;&gt;&lt;font color=&quot;#000000&quot;&gt;&lt;span style=&quot;&quot;&gt;&#9;&lt;/span&gt;&lt;span style=&quot;white-space: pre;&quot;&gt;&#9;&lt;/span&gt;Ya vista en /myfeed&lt;/font&gt;&lt;/p&gt;&lt;p style=&quot;text-align: left;&quot;&gt;&lt;font color=&quot;#000000&quot;&gt;&lt;span style=&quot;&quot;&gt;&#9;&lt;/span&gt;&lt;span style=&quot;&quot;&gt;&#9;&lt;/span&gt;&lt;br&gt;&lt;/font&gt;&lt;/p&gt;&lt;p style=&quot;text-align: left;&quot;&gt;&lt;font color=&quot;#000000&quot;&gt;&lt;br&gt;&lt;/font&gt;&lt;/p&gt;" style="text;html=1;strokeColor=none;fillColor=none;spacing=5;spacingTop=-20;whiteSpace=wrap;overflow=hidden;rounded=0;align=center;" parent="1" vertex="1">
                    <mxGeometry x="4478.75" y="-1375" width="640" height="640" as="geometry"/>
                </mxCell>
                <mxCell id="244" value="CERRAR&lt;br&gt;SESIÓN" style="rounded=1;whiteSpace=wrap;html=1;fontSize=9;fontColor=#ffffff;fillColor=#1ba1e2;strokeColor=#006EAF;" parent="1" vertex="1">
                    <mxGeometry x="4205" y="-1175" width="105" height="40" as="geometry"/>
                </mxCell>
                <mxCell id="246" value="&lt;h1 style=&quot;text-align: left;&quot;&gt;&lt;font color=&quot;#000000&quot;&gt;Componentes y comportamiento de ProfilePage&lt;/font&gt;&lt;/h1&gt;&lt;p style=&quot;text-align: left;&quot;&gt;&lt;font color=&quot;#000000&quot;&gt;&amp;gt; h1 (nombre de usuario)&lt;/font&gt;&lt;/p&gt;&lt;p style=&quot;text-align: left;&quot;&gt;&lt;font color=&quot;#000000&quot;&gt;&amp;gt; p (cantidad de posts del usuario)&lt;/font&gt;&lt;/p&gt;&lt;p style=&quot;text-align: left;&quot;&gt;&lt;font color=&quot;#000000&quot;&gt;&amp;gt; PostsContainer (article)&lt;/font&gt;&lt;/p&gt;&lt;span style=&quot;color: rgb(0, 0, 0);&quot;&gt;&lt;div style=&quot;text-align: left;&quot;&gt;&lt;span style=&quot;background-color: initial; white-space: pre;&quot;&gt;&#9;&lt;/span&gt;&lt;span style=&quot;background-color: initial;&quot;&gt;- se muestran todas las imágenes subidas por el usuario en la red social ordenadas cronólogicamente&lt;/span&gt;&lt;/div&gt;&lt;/span&gt;&lt;span style=&quot;color: rgb(0, 0, 0); background-color: initial;&quot;&gt;&lt;div style=&quot;text-align: left;&quot;&gt;&lt;span style=&quot;background-color: initial;&quot;&gt;&lt;span style=&quot;white-space: pre;&quot;&gt;&#9;&lt;/span&gt;- con varias img que redirigen a /posts/:id&lt;/span&gt;&lt;/div&gt;&lt;/span&gt;&lt;p style=&quot;text-align: left;&quot;&gt;&lt;font color=&quot;#000000&quot;&gt;&amp;gt; Navbar (nav):&lt;/font&gt;&lt;/p&gt;&lt;p style=&quot;text-align: left;&quot;&gt;&lt;font color=&quot;#000000&quot;&gt;&lt;span style=&quot;&quot;&gt;&#9;&lt;/span&gt;&lt;span style=&quot;white-space: pre;&quot;&gt;&#9;&lt;/span&gt;- Ya vista en /myfeed&lt;/font&gt;&lt;/p&gt;&lt;p style=&quot;text-align: left;&quot;&gt;&lt;font color=&quot;#000000&quot;&gt;&lt;span style=&quot;&quot;&gt;&#9;&lt;/span&gt;&lt;span style=&quot;&quot;&gt;&#9;&lt;/span&gt;&lt;br&gt;&lt;/font&gt;&lt;/p&gt;&lt;p style=&quot;text-align: left;&quot;&gt;&lt;font color=&quot;#000000&quot;&gt;&lt;br&gt;&lt;/font&gt;&lt;/p&gt;" style="text;html=1;strokeColor=none;fillColor=none;spacing=5;spacingTop=-20;whiteSpace=wrap;overflow=hidden;rounded=0;align=center;" parent="1" vertex="1">
                    <mxGeometry x="2918.44" y="-163.75" width="640" height="385" as="geometry"/>
                </mxCell>
                <mxCell id="250" value="&lt;div style=&quot;text-align: left; font-size: 20px;&quot;&gt;&lt;span style=&quot;background-color: initial;&quot;&gt;&lt;font style=&quot;font-size: 20px;&quot;&gt;&lt;b&gt;&lt;u&gt;RUTAS DISPONIBLES Y FLUJO:&lt;/u&gt;&lt;/b&gt;&lt;/font&gt;&lt;/span&gt;&lt;/div&gt;&lt;div style=&quot;text-align: left; font-size: 20px;&quot;&gt;&lt;span style=&quot;background-color: initial;&quot;&gt;&lt;font style=&quot;font-size: 20px;&quot;&gt;&lt;b&gt;&lt;u&gt;&lt;br&gt;&lt;/u&gt;&lt;/b&gt;&lt;/font&gt;&lt;/span&gt;&lt;/div&gt;&lt;div style=&quot;text-align: left; font-size: 20px;&quot;&gt;&lt;span style=&quot;background-color: initial;&quot;&gt;&lt;font style=&quot;font-size: 20px;&quot;&gt;&lt;b&gt;&lt;u&gt;Navbar:&lt;/u&gt;&lt;/b&gt;&lt;/font&gt;&lt;/span&gt;&lt;/div&gt;&lt;div style=&quot;font-size: 20px; text-align: left;&quot;&gt;&lt;div&gt;&lt;span style=&quot;&quot;&gt;&#9;&lt;/span&gt;&lt;span style=&quot;&quot;&gt;&#9;&lt;/span&gt;Apretar el botón de my feed en el navbar lleva a /myfeed.&lt;span style=&quot;background-color: initial;&quot;&gt;&lt;br&gt;&lt;/span&gt;&lt;/div&gt;&lt;div&gt;&lt;span style=&quot;background-color: initial;&quot;&gt;&lt;span style=&quot;&quot;&gt;&#9;&lt;/span&gt;&lt;span style=&quot;&quot;&gt;&#9;&lt;/span&gt;Apretar el botón de crear post en el navbar lleva a /createpost.&lt;/span&gt;&lt;/div&gt;&lt;div&gt;&lt;span style=&quot;background-color: initial;&quot;&gt;&lt;span style=&quot;&quot;&gt;&#9;&lt;/span&gt;&lt;span style=&quot;&quot;&gt;&#9;&lt;/span&gt;Apretar la foto de perfil propia en el navbar lleva a /myprofile.&lt;/span&gt;&lt;/div&gt;&lt;/div&gt;&lt;div style=&quot;text-align: left; font-size: 20px;&quot;&gt;&lt;br&gt;&lt;/div&gt;&lt;div style=&quot;text-align: left; font-size: 20px;&quot;&gt;&lt;span style=&quot;background-color: initial;&quot;&gt;&lt;font style=&quot;font-size: 20px;&quot;&gt;&lt;b&gt;/login&lt;/b&gt;&lt;/font&gt;&lt;/span&gt;&lt;/div&gt;&lt;div style=&quot;text-align: left; font-size: 20px;&quot;&gt;&lt;span style=&quot;background-color: initial;&quot;&gt;&lt;font style=&quot;font-size: 20px;&quot;&gt;- Donde el usuario se loguea y es llevado a /myfeed.&lt;/font&gt;&lt;/span&gt;&lt;/div&gt;&lt;div style=&quot;text-align: left; font-size: 20px;&quot;&gt;&lt;span style=&quot;background-color: initial;&quot;&gt;&lt;font style=&quot;font-size: 20px;&quot;&gt;Dar en el botón de crear cuenta lleva a /register.&lt;/font&gt;&lt;/span&gt;&lt;/div&gt;&lt;div style=&quot;text-align: left; font-size: 20px;&quot;&gt;&lt;span style=&quot;background-color: initial;&quot;&gt;&lt;font style=&quot;font-size: 20px;&quot;&gt;&lt;br&gt;&lt;/font&gt;&lt;/span&gt;&lt;/div&gt;&lt;div style=&quot;text-align: left; font-size: 20px;&quot;&gt;&lt;span style=&quot;background-color: initial;&quot;&gt;&lt;font style=&quot;font-size: 20px;&quot;&gt;&lt;b&gt;/register&lt;/b&gt;&lt;/font&gt;&lt;/span&gt;&lt;/div&gt;&lt;div style=&quot;text-align: left; font-size: 20px;&quot;&gt;&lt;span style=&quot;background-color: initial;&quot;&gt;&lt;font style=&quot;font-size: 20px;&quot;&gt;- Donde el usuario se registra y es llevado /login.&lt;/font&gt;&lt;/span&gt;&lt;/div&gt;&lt;div style=&quot;text-align: left; font-size: 20px;&quot;&gt;&lt;span style=&quot;background-color: initial;&quot;&gt;Tanto cancelar el registro como completarlo lleva a /login.&lt;/span&gt;&lt;/div&gt;&lt;div style=&quot;text-align: left; font-size: 20px;&quot;&gt;&lt;span style=&quot;background-color: initial;&quot;&gt;&lt;font style=&quot;font-size: 20px;&quot;&gt;&lt;br&gt;&lt;/font&gt;&lt;/span&gt;&lt;/div&gt;&lt;div style=&quot;text-align: left; font-size: 20px;&quot;&gt;&lt;span style=&quot;background-color: initial;&quot;&gt;&lt;b&gt;/myfeed&lt;/b&gt;&lt;/span&gt;&lt;/div&gt;&lt;div style=&quot;text-align: left; font-size: 20px;&quot;&gt;&lt;span style=&quot;background-color: initial;&quot;&gt;- Donde el usuario ve los posts de otros usuarios menos los propios, ordenados de forma cronológica.&lt;/span&gt;&lt;/div&gt;&lt;div style=&quot;text-align: left; font-size: 20px;&quot;&gt;&lt;div&gt;&lt;span style=&quot;background-color: initial;&quot;&gt;Apretar la imagen de un post lleva a /posts/:id.&lt;/span&gt;&lt;/div&gt;&lt;div&gt;&lt;span style=&quot;background-color: initial;&quot;&gt;Apretar la foto de perfil de un usuario en un post&lt;/span&gt;&lt;span style=&quot;background-color: initial;&quot;&gt;&amp;nbsp;lleva a /profiles/:id.&lt;/span&gt;&lt;/div&gt;&lt;div&gt;&lt;span style=&quot;background-color: initial;&quot;&gt;&lt;u&gt;Navbar.&lt;/u&gt;&lt;/span&gt;&lt;/div&gt;&lt;/div&gt;&lt;div style=&quot;text-align: left; font-size: 20px;&quot;&gt;&lt;span style=&quot;background-color: initial;&quot;&gt;&lt;font style=&quot;font-size: 20px;&quot;&gt;&lt;br&gt;&lt;/font&gt;&lt;/span&gt;&lt;/div&gt;&lt;div style=&quot;text-align: left; font-size: 20px;&quot;&gt;&lt;span style=&quot;background-color: initial;&quot;&gt;&lt;font style=&quot;font-size: 20px;&quot;&gt;&lt;b&gt;/createpost&lt;/b&gt;&lt;/font&gt;&lt;/span&gt;&lt;/div&gt;&lt;div style=&quot;text-align: left; font-size: 20px;&quot;&gt;&lt;span style=&quot;background-color: initial;&quot;&gt;&lt;font style=&quot;font-size: 20px;&quot;&gt;- Donde el usuario crea un nuevo post que aparecerá en el feed de otros usuarios y en su perfil.&lt;/font&gt;&lt;/span&gt;&lt;/div&gt;&lt;div style=&quot;text-align: left; font-size: 20px;&quot;&gt;&lt;span style=&quot;background-color: initial;&quot;&gt;&lt;font style=&quot;font-size: 20px;&quot;&gt;Tanto completar la creación como cancelarla lleva a /myprofile.&lt;/font&gt;&lt;/span&gt;&lt;/div&gt;&lt;div style=&quot;text-align: left; font-size: 20px;&quot;&gt;&lt;span style=&quot;background-color: initial;&quot;&gt;&lt;font style=&quot;font-size: 20px;&quot;&gt;&lt;br&gt;&lt;/font&gt;&lt;/span&gt;&lt;/div&gt;&lt;div style=&quot;text-align: left; font-size: 20px;&quot;&gt;&lt;span style=&quot;background-color: initial;&quot;&gt;&lt;font style=&quot;font-size: 20px;&quot;&gt;&lt;b&gt;/myprofile&lt;/b&gt;&lt;/font&gt;&lt;/span&gt;&lt;/div&gt;&lt;div style=&quot;text-align: left; font-size: 20px;&quot;&gt;&lt;span style=&quot;background-color: initial;&quot;&gt;&lt;font style=&quot;font-size: 20px;&quot;&gt;- Donde el usuario ve su perfil e imágenes subidas en forma cronológica.&lt;/font&gt;&lt;/span&gt;&lt;/div&gt;&lt;div style=&quot;text-align: left; font-size: 20px;&quot;&gt;&lt;span style=&quot;background-color: initial;&quot;&gt;&lt;font style=&quot;font-size: 20px;&quot;&gt;Apretar el botón de editar perfil lleva a /myprofile/edit.&lt;br&gt;&lt;/font&gt;&lt;/span&gt;&lt;/div&gt;&lt;div style=&quot;text-align: left; font-size: 20px;&quot;&gt;&lt;span style=&quot;background-color: initial;&quot;&gt;&lt;font style=&quot;font-size: 20px;&quot;&gt;Apretar el botón de cerrar sesión lleva a /login.&lt;br&gt;&lt;/font&gt;&lt;/span&gt;&lt;/div&gt;&lt;div style=&quot;text-align: left; font-size: 20px;&quot;&gt;&lt;span style=&quot;background-color: initial;&quot;&gt;&lt;font style=&quot;font-size: 20px;&quot;&gt;Apretar una de las imágenes subidas lleva a /myposts/:id.&lt;/font&gt;&lt;/span&gt;&lt;/div&gt;&lt;div style=&quot;text-align: left; font-size: 20px;&quot;&gt;&lt;span style=&quot;background-color: initial;&quot;&gt;&lt;font style=&quot;font-size: 20px;&quot;&gt;&lt;u&gt;Navbar.&lt;/u&gt;&lt;/font&gt;&lt;/span&gt;&lt;/div&gt;&lt;div style=&quot;text-align: left; font-size: 20px;&quot;&gt;&lt;div&gt;&lt;span style=&quot;background-color: initial;&quot;&gt;&lt;br&gt;&lt;/span&gt;&lt;/div&gt;&lt;/div&gt;&lt;div style=&quot;text-align: left; font-size: 20px;&quot;&gt;&lt;span style=&quot;background-color: initial;&quot;&gt;&lt;span style=&quot;&quot;&gt;&#9;&lt;/span&gt;&lt;span style=&quot;&quot;&gt;&#9;&lt;/span&gt;  &#9;&lt;/span&gt;&lt;span style=&quot;background-color: initial;&quot;&gt;&#9;&lt;/span&gt;&lt;/div&gt;&lt;div style=&quot;text-align: left; font-size: 20px;&quot;&gt;&lt;span style=&quot;background-color: initial;&quot;&gt;&lt;font style=&quot;font-size: 20px;&quot;&gt;&lt;b&gt;/myprofile/edit&lt;/b&gt;&lt;/font&gt;&lt;/span&gt;&lt;/div&gt;&lt;div style=&quot;text-align: left; font-size: 20px;&quot;&gt;&lt;span style=&quot;background-color: initial;&quot;&gt;&lt;font style=&quot;font-size: 20px;&quot;&gt;- Donde el usuario edita su nombre de usuario y contraseña.&lt;/font&gt;&lt;/span&gt;&lt;/div&gt;&lt;div style=&quot;text-align: left; font-size: 20px;&quot;&gt;Tanto cancelar la edición como completarla lleva a /myprofile.&lt;/div&gt;&lt;div style=&quot;text-align: left; font-size: 20px;&quot;&gt;&lt;span style=&quot;background-color: initial;&quot;&gt;&lt;font style=&quot;font-size: 20px;&quot;&gt;&lt;br&gt;&lt;/font&gt;&lt;/span&gt;&lt;/div&gt;&lt;div style=&quot;text-align: left; font-size: 20px;&quot;&gt;&lt;span style=&quot;background-color: initial;&quot;&gt;&lt;font style=&quot;font-size: 20px;&quot;&gt;&lt;b&gt;/myposts/:id&lt;/b&gt;&lt;/font&gt;&lt;/span&gt;&lt;/div&gt;&lt;div style=&quot;text-align: left; font-size: 20px;&quot;&gt;- Donde el usuario ve uno de sus posts según la id del post.&lt;/div&gt;&lt;div style=&quot;text-align: left; font-size: 20px;&quot;&gt;Apretar el botón de eliminar post elimina el post y lleva a /myprofile.&lt;/div&gt;&lt;div style=&quot;text-align: left; font-size: 20px;&quot;&gt;Apretar la foto de perfil de un usuario en un post propio lleva a /profiles/:id.&lt;/div&gt;&lt;div style=&quot;text-align: left; font-size: 20px;&quot;&gt;&lt;u&gt;Navbar.&lt;/u&gt;&lt;/div&gt;&lt;div style=&quot;text-align: left; font-size: 20px;&quot;&gt;&lt;br&gt;&lt;/div&gt;&lt;div style=&quot;text-align: left; font-size: 20px;&quot;&gt;&lt;span style=&quot;background-color: initial;&quot;&gt;&lt;font style=&quot;font-size: 20px;&quot;&gt;&lt;b&gt;/profiles/:id&lt;/b&gt;&lt;/font&gt;&lt;/span&gt;&lt;/div&gt;&lt;div style=&quot;text-align: left; font-size: 20px;&quot;&gt;&lt;span style=&quot;background-color: initial;&quot;&gt;&lt;font style=&quot;font-size: 20px;&quot;&gt;- Donde el usuario ve el perfil de otro usuario y sus imágenes subidas en forma cronológica según la id del usuario.&lt;/font&gt;&lt;/span&gt;&lt;/div&gt;&lt;div style=&quot;text-align: left; font-size: 20px;&quot;&gt;&lt;div&gt;&lt;span style=&quot;background-color: initial;&quot;&gt;Apretar una de las imágenes subidas lleva a /posts/:id.&lt;/span&gt;&lt;/div&gt;&lt;div&gt;&lt;span style=&quot;background-color: initial;&quot;&gt;&lt;u&gt;Navbar.&lt;/u&gt;&lt;/span&gt;&lt;/div&gt;&lt;/div&gt;&lt;div style=&quot;text-align: left; font-size: 20px;&quot;&gt;&lt;span style=&quot;background-color: initial;&quot;&gt;&lt;font style=&quot;font-size: 20px;&quot;&gt;&lt;br&gt;&lt;/font&gt;&lt;/span&gt;&lt;/div&gt;&lt;div style=&quot;text-align: left; font-size: 20px;&quot;&gt;&lt;span style=&quot;background-color: initial;&quot;&gt;&lt;font style=&quot;font-size: 20px;&quot;&gt;&lt;b&gt;/posts/:id&lt;/b&gt;&lt;/font&gt;&lt;/span&gt;&lt;/div&gt;&lt;div style=&quot;text-align: left; font-size: 20px;&quot;&gt;&lt;span style=&quot;background-color: initial;&quot;&gt;&lt;font style=&quot;font-size: 20px;&quot;&gt;- Donde el usuario ve un post de otro usuario.&lt;/font&gt;&lt;/span&gt;&lt;/div&gt;&lt;div style=&quot;text-align: left; font-size: 20px;&quot;&gt;Apretar la foto de perfil de un usuario en un post lleva a /profiles/:id.&lt;/div&gt;&lt;div style=&quot;text-align: left; font-size: 20px;&quot;&gt;&lt;u&gt;Navbar.&lt;/u&gt;&lt;/div&gt;" style="rounded=1;whiteSpace=wrap;html=1;fontSize=9;fontColor=#000000;fillColor=#7D7540;" parent="1" vertex="1">
                    <mxGeometry x="-1420" y="-3075" width="1070" height="1420" as="geometry"/>
                </mxCell>
                <mxCell id="361" style="edgeStyle=none;html=1;exitX=1;exitY=0.5;exitDx=0;exitDy=0;entryX=0.5;entryY=1;entryDx=0;entryDy=0;fontSize=10;" parent="1" source="251" target="253" edge="1">
                    <mxGeometry relative="1" as="geometry">
                        <Array as="points">
                            <mxPoint x="480" y="-2040"/>
                        </Array>
                    </mxGeometry>
                </mxCell>
                <mxCell id="251" value="&lt;font style=&quot;font-size: 20px;&quot;&gt;/login&lt;/font&gt;" style="rounded=0;whiteSpace=wrap;html=1;fillColor=#60a917;fontColor=#ffffff;strokeColor=#2D7600;" parent="1" vertex="1">
                    <mxGeometry x="-80" y="-2070" width="120" height="60" as="geometry"/>
                </mxCell>
                <mxCell id="252" value="/register" style="rounded=0;whiteSpace=wrap;html=1;fontSize=20;fillColor=#60a917;fontColor=#ffffff;strokeColor=#2D7600;" parent="1" vertex="1">
                    <mxGeometry x="-220" y="-1900" width="120" height="60" as="geometry"/>
                </mxCell>
                <mxCell id="653" style="edgeStyle=none;html=1;exitX=0;exitY=0;exitDx=0;exitDy=0;entryX=1;entryY=1;entryDx=0;entryDy=0;" parent="1" source="253" target="260" edge="1">
                    <mxGeometry relative="1" as="geometry"/>
                </mxCell>
                <mxCell id="654" style="edgeStyle=none;html=1;exitX=0;exitY=0.5;exitDx=0;exitDy=0;entryX=0;entryY=0.5;entryDx=0;entryDy=0;" parent="1" source="253" target="259" edge="1">
                    <mxGeometry relative="1" as="geometry">
                        <Array as="points">
                            <mxPoint x="-120" y="-2370"/>
                            <mxPoint x="-120" y="-2900"/>
                        </Array>
                    </mxGeometry>
                </mxCell>
                <mxCell id="253" value="/myfeed" style="rounded=0;whiteSpace=wrap;html=1;fontSize=20;fillColor=#a20025;fontColor=#ffffff;strokeColor=#6F0000;" parent="1" vertex="1">
                    <mxGeometry x="420" y="-2400" width="120" height="60" as="geometry"/>
                </mxCell>
                <mxCell id="254" value="/createpost" style="rounded=0;whiteSpace=wrap;html=1;fontSize=20;fillColor=#a20025;fontColor=#ffffff;strokeColor=#6F0000;" parent="1" vertex="1">
                    <mxGeometry x="800" y="-2530" width="120" height="60" as="geometry"/>
                </mxCell>
                <mxCell id="370" style="edgeStyle=none;html=1;exitX=0;exitY=0.5;exitDx=0;exitDy=0;entryX=0.5;entryY=1;entryDx=0;entryDy=0;fontSize=10;" parent="1" source="255" target="251" edge="1">
                    <mxGeometry relative="1" as="geometry">
                        <Array as="points">
                            <mxPoint x="680" y="-2200"/>
                            <mxPoint x="680" y="-1920"/>
                            <mxPoint x="-20" y="-1920"/>
                        </Array>
                    </mxGeometry>
                </mxCell>
                <mxCell id="255" value="/myprofile" style="rounded=0;whiteSpace=wrap;html=1;fontSize=20;fillColor=#a20025;fontColor=#ffffff;strokeColor=#6F0000;" parent="1" vertex="1">
                    <mxGeometry x="800" y="-2230" width="120" height="60" as="geometry"/>
                </mxCell>
                <mxCell id="256" value="/myprofile/edit" style="rounded=0;whiteSpace=wrap;html=1;fontSize=20;fillColor=#fa6800;fontColor=#000000;strokeColor=#C73500;" parent="1" vertex="1">
                    <mxGeometry x="770" y="-2040" width="180" height="60" as="geometry"/>
                </mxCell>
                <mxCell id="655" style="edgeStyle=none;html=1;exitX=0;exitY=0.5;exitDx=0;exitDy=0;entryX=1;entryY=0.5;entryDx=0;entryDy=0;" parent="1" source="258" target="485" edge="1">
                    <mxGeometry relative="1" as="geometry"/>
                </mxCell>
                <mxCell id="658" style="edgeStyle=none;html=1;exitX=0;exitY=0;exitDx=0;exitDy=0;entryX=1;entryY=1;entryDx=0;entryDy=0;" parent="1" source="258" target="259" edge="1">
                    <mxGeometry relative="1" as="geometry"/>
                </mxCell>
                <mxCell id="258" value="/myposts/:id" style="rounded=0;whiteSpace=wrap;html=1;fontSize=20;fillColor=#fa6800;fontColor=#000000;strokeColor=#C73500;" parent="1" vertex="1">
                    <mxGeometry x="815" y="-2680" width="180" height="60" as="geometry"/>
                </mxCell>
                <mxCell id="663" style="edgeStyle=none;html=1;exitX=0.5;exitY=1;exitDx=0;exitDy=0;entryX=0.5;entryY=0;entryDx=0;entryDy=0;" parent="1" source="259" target="485" edge="1">
                    <mxGeometry relative="1" as="geometry"/>
                </mxCell>
                <mxCell id="259" value="/profiles/:id" style="rounded=0;whiteSpace=wrap;html=1;fontSize=20;fillColor=#0050ef;fontColor=#ffffff;strokeColor=#001DBC;" parent="1" vertex="1">
                    <mxGeometry x="390" y="-2930" width="180" height="60" as="geometry"/>
                </mxCell>
                <mxCell id="662" style="edgeStyle=none;html=1;exitX=1;exitY=0.5;exitDx=0;exitDy=0;entryX=0;entryY=0.5;entryDx=0;entryDy=0;" parent="1" source="260" target="485" edge="1">
                    <mxGeometry relative="1" as="geometry"/>
                </mxCell>
                <mxCell id="260" value="/posts/:id" style="rounded=0;whiteSpace=wrap;html=1;fontSize=20;fillColor=#0050ef;fontColor=#ffffff;strokeColor=#001DBC;" parent="1" vertex="1">
                    <mxGeometry x="-20" y="-2680" width="180" height="60" as="geometry"/>
                </mxCell>
                <mxCell id="280" value="" style="endArrow=classic;startArrow=classic;html=1;fontSize=20;exitX=0;exitY=0.5;exitDx=0;exitDy=0;entryX=0.5;entryY=0;entryDx=0;entryDy=0;" parent="1" source="251" target="252" edge="1">
                    <mxGeometry width="50" height="50" relative="1" as="geometry">
                        <mxPoint x="-460" y="-1570" as="sourcePoint"/>
                        <mxPoint x="-410" y="-1620" as="targetPoint"/>
                        <Array as="points">
                            <mxPoint x="-160" y="-2040"/>
                        </Array>
                    </mxGeometry>
                </mxCell>
                <mxCell id="306" value="&lt;font color=&quot;#000000&quot;&gt;TERMINADO&lt;/font&gt;" style="text;html=1;strokeColor=none;fillColor=none;align=center;verticalAlign=middle;whiteSpace=wrap;rounded=0;fontSize=20;fontColor=#FF9933;" parent="1" vertex="1">
                    <mxGeometry x="4710" y="-2790" width="60" height="30" as="geometry"/>
                </mxCell>
                <mxCell id="326" value="" style="rounded=1;whiteSpace=wrap;html=1;fontSize=40;fontColor=#FFFFFF;" parent="1" vertex="1">
                    <mxGeometry x="2565" y="-1015" width="205" height="35" as="geometry"/>
                </mxCell>
                <mxCell id="327" value="" style="ellipse;whiteSpace=wrap;html=1;aspect=fixed;fontSize=40;fontColor=#ffffff;fillColor=#d80073;strokeColor=#A50040;" parent="1" vertex="1">
                    <mxGeometry x="2572.5" y="-1010" width="30" height="30" as="geometry"/>
                </mxCell>
                <mxCell id="328" value="&lt;span style=&quot;font-size: 12px;&quot;&gt;Example&lt;/span&gt;" style="text;html=1;strokeColor=none;fillColor=none;align=left;verticalAlign=middle;whiteSpace=wrap;rounded=0;fontSize=40;fontColor=#FFFFFF;" parent="1" vertex="1">
                    <mxGeometry x="2611.25" y="-1015" width="137.5" height="20" as="geometry"/>
                </mxCell>
                <mxCell id="330" value="" style="rounded=0;whiteSpace=wrap;html=1;fontSize=20;fillColor=#d80073;fontColor=#ffffff;strokeColor=#A50040;" parent="1" vertex="1">
                    <mxGeometry x="2566.25" y="-970" width="202.5" height="30" as="geometry"/>
                </mxCell>
                <mxCell id="397" style="edgeStyle=none;html=1;exitX=0.5;exitY=1;exitDx=0;exitDy=0;fontSize=10;" parent="1" source="331" target="121" edge="1">
                    <mxGeometry relative="1" as="geometry"/>
                </mxCell>
                <mxCell id="331" value="&lt;font style=&quot;font-size: 10px;&quot;&gt;ver comentarios&lt;/font&gt;" style="rounded=1;whiteSpace=wrap;html=1;fontSize=20;fillColor=#1ba1e2;fontColor=#ffffff;strokeColor=#006EAF;" parent="1" vertex="1">
                    <mxGeometry x="2567.5" y="-1040" width="80" height="15" as="geometry"/>
                </mxCell>
                <mxCell id="334" value="&lt;font color=&quot;#000000&quot;&gt;TERMINADO&lt;/font&gt;" style="text;html=1;strokeColor=none;fillColor=none;align=center;verticalAlign=middle;whiteSpace=wrap;rounded=0;fontSize=20;fontColor=#FF9933;" parent="1" vertex="1">
                    <mxGeometry x="2863.75" y="-1480" width="188.75" height="30" as="geometry"/>
                </mxCell>
                <mxCell id="335" value="" style="rounded=0;whiteSpace=wrap;html=1;" parent="1" vertex="1">
                    <mxGeometry x="2634.69" y="-188.75" width="240" height="480" as="geometry"/>
                </mxCell>
                <mxCell id="336" value="&lt;font style=&quot;font-size: 15px;&quot;&gt;Nombre de usuario&lt;/font&gt;" style="rounded=0;whiteSpace=wrap;html=1;fontSize=9;fontColor=#FFFFFF;" parent="1" vertex="1">
                    <mxGeometry x="2634.69" y="-188.75" width="235" height="60" as="geometry"/>
                </mxCell>
                <mxCell id="337" value="FOTO&lt;br&gt;DE PERFIL" style="ellipse;whiteSpace=wrap;html=1;aspect=fixed;fontSize=15;fontColor=#ffffff;fillColor=#d80073;strokeColor=#A50040;" parent="1" vertex="1">
                    <mxGeometry x="2649.69" y="-118.75" width="80" height="80" as="geometry"/>
                </mxCell>
                <mxCell id="338" value="Cantidad&lt;br&gt;de posts" style="text;html=1;strokeColor=none;fillColor=none;align=center;verticalAlign=middle;whiteSpace=wrap;rounded=0;fontSize=15;fontColor=#FFFFFF;" parent="1" vertex="1">
                    <mxGeometry x="2769.69" y="-93.75" width="60" height="30" as="geometry"/>
                </mxCell>
                <mxCell id="339" value="" style="rounded=0;whiteSpace=wrap;html=1;fontSize=12;fontColor=#FFFFFF;" parent="1" vertex="1">
                    <mxGeometry x="2634.69" y="246.25" width="240" height="45" as="geometry"/>
                </mxCell>
                <mxCell id="340" value="&lt;font style=&quot;font-size: 7px;&quot;&gt;INICIO (FEED)&lt;/font&gt;" style="rounded=1;whiteSpace=wrap;html=1;fontSize=12;fontColor=#ffffff;fillColor=#1ba1e2;strokeColor=#006EAF;" parent="1" vertex="1">
                    <mxGeometry x="2644.69" y="256.25" width="60" height="25" as="geometry"/>
                </mxCell>
                <mxCell id="341" value="&lt;font style=&quot;font-size: 9px;&quot;&gt;PERFIL&lt;/font&gt;" style="ellipse;whiteSpace=wrap;html=1;fontSize=12;fontColor=#ffffff;fillColor=#d80073;strokeColor=#A50040;" parent="1" vertex="1">
                    <mxGeometry x="2797.19" y="248.75" width="60" height="40" as="geometry"/>
                </mxCell>
                <mxCell id="342" value="&lt;font style=&quot;font-size: 8px;&quot;&gt;SUBIR&lt;br&gt;FOTO&lt;/font&gt;" style="ellipse;whiteSpace=wrap;html=1;aspect=fixed;fontSize=12;fontColor=#ffffff;fillColor=#1ba1e2;strokeColor=#006EAF;" parent="1" vertex="1">
                    <mxGeometry x="2735.94" y="246.25" width="37.5" height="37.5" as="geometry"/>
                </mxCell>
                <mxCell id="344" value="" style="verticalLabelPosition=bottom;shadow=0;dashed=0;align=center;html=1;verticalAlign=top;strokeWidth=1;shape=mxgraph.mockup.graphics.simpleIcon;strokeColor=#A50040;fillColor=#d80073;fontSize=15;fontColor=#ffffff;" parent="1" vertex="1">
                    <mxGeometry x="2654.69" y="21.25" width="50" height="50" as="geometry"/>
                </mxCell>
                <mxCell id="345" value="" style="verticalLabelPosition=bottom;shadow=0;dashed=0;align=center;html=1;verticalAlign=top;strokeWidth=1;shape=mxgraph.mockup.graphics.simpleIcon;strokeColor=#A50040;fillColor=#d80073;fontSize=15;fontColor=#ffffff;" parent="1" vertex="1">
                    <mxGeometry x="2729.69" y="21.25" width="50" height="50" as="geometry"/>
                </mxCell>
                <mxCell id="346" value="" style="verticalLabelPosition=bottom;shadow=0;dashed=0;align=center;html=1;verticalAlign=top;strokeWidth=1;shape=mxgraph.mockup.graphics.simpleIcon;strokeColor=#A50040;fillColor=#d80073;fontSize=15;fontColor=#ffffff;" parent="1" vertex="1">
                    <mxGeometry x="2804.69" y="21.25" width="50" height="50" as="geometry"/>
                </mxCell>
                <mxCell id="347" value="" style="verticalLabelPosition=bottom;shadow=0;dashed=0;align=center;html=1;verticalAlign=top;strokeWidth=1;shape=mxgraph.mockup.graphics.simpleIcon;strokeColor=#A50040;fillColor=#d80073;fontSize=15;fontColor=#ffffff;" parent="1" vertex="1">
                    <mxGeometry x="2654.69" y="96.25" width="50" height="50" as="geometry"/>
                </mxCell>
                <mxCell id="348" value="" style="verticalLabelPosition=bottom;shadow=0;dashed=0;align=center;html=1;verticalAlign=top;strokeWidth=1;shape=mxgraph.mockup.graphics.simpleIcon;strokeColor=#A50040;fillColor=#d80073;fontSize=15;fontColor=#ffffff;" parent="1" vertex="1">
                    <mxGeometry x="2729.69" y="96.25" width="50" height="50" as="geometry"/>
                </mxCell>
                <mxCell id="349" value="" style="verticalLabelPosition=bottom;shadow=0;dashed=0;align=center;html=1;verticalAlign=top;strokeWidth=1;shape=mxgraph.mockup.graphics.simpleIcon;strokeColor=#A50040;fillColor=#d80073;fontSize=15;fontColor=#ffffff;" parent="1" vertex="1">
                    <mxGeometry x="2804.69" y="96.25" width="50" height="50" as="geometry"/>
                </mxCell>
                <mxCell id="350" value="" style="verticalLabelPosition=bottom;shadow=0;dashed=0;align=center;html=1;verticalAlign=top;strokeWidth=1;shape=mxgraph.mockup.graphics.simpleIcon;strokeColor=#A50040;fillColor=#d80073;fontSize=15;fontColor=#ffffff;" parent="1" vertex="1">
                    <mxGeometry x="2654.69" y="171.25" width="50" height="50" as="geometry"/>
                </mxCell>
                <mxCell id="351" value="" style="verticalLabelPosition=bottom;shadow=0;dashed=0;align=center;html=1;verticalAlign=top;strokeWidth=1;shape=mxgraph.mockup.graphics.simpleIcon;strokeColor=#A50040;fillColor=#d80073;fontSize=15;fontColor=#ffffff;" parent="1" vertex="1">
                    <mxGeometry x="2729.69" y="171.25" width="50" height="50" as="geometry"/>
                </mxCell>
                <mxCell id="352" value="" style="verticalLabelPosition=bottom;shadow=0;dashed=0;align=center;html=1;verticalAlign=top;strokeWidth=1;shape=mxgraph.mockup.graphics.simpleIcon;strokeColor=#A50040;fillColor=#d80073;fontSize=15;fontColor=#ffffff;" parent="1" vertex="1">
                    <mxGeometry x="2804.69" y="171.25" width="50" height="50" as="geometry"/>
                </mxCell>
                <mxCell id="353" value="/profiles/:id" style="text;html=1;strokeColor=none;fillColor=none;align=center;verticalAlign=middle;whiteSpace=wrap;rounded=0;" parent="1" vertex="1">
                    <mxGeometry x="2634.69" y="-218.75" width="95" height="30" as="geometry"/>
                </mxCell>
                <mxCell id="373" value="" style="endArrow=classic;startArrow=classic;html=1;fontSize=10;exitX=0.5;exitY=0;exitDx=0;exitDy=0;entryX=0.5;entryY=1;entryDx=0;entryDy=0;" parent="1" source="256" target="255" edge="1">
                    <mxGeometry width="50" height="50" relative="1" as="geometry">
                        <mxPoint x="830" y="-2050" as="sourcePoint"/>
                        <mxPoint x="880" y="-2100" as="targetPoint"/>
                    </mxGeometry>
                </mxCell>
                <mxCell id="381" value="&lt;font color=&quot;#000000&quot;&gt;TERMINADO&lt;/font&gt;" style="text;html=1;strokeColor=none;fillColor=none;align=center;verticalAlign=middle;whiteSpace=wrap;rounded=0;fontSize=20;fontColor=#FF9933;" parent="1" vertex="1">
                    <mxGeometry x="4570" y="-1420" width="60" height="30" as="geometry"/>
                </mxCell>
                <mxCell id="398" value="&lt;font color=&quot;#000000&quot;&gt;TERMINADO&lt;/font&gt;" style="text;html=1;strokeColor=none;fillColor=none;align=center;verticalAlign=middle;whiteSpace=wrap;rounded=0;fontSize=20;fontColor=#FF9933;" parent="1" vertex="1">
                    <mxGeometry x="3072.5" y="-248.75" width="60" height="30" as="geometry"/>
                </mxCell>
                <mxCell id="400" value="" style="rounded=1;whiteSpace=wrap;html=1;fontSize=40;fontColor=#ffffff;fillColor=#60a917;strokeColor=#2D7600;" parent="1" vertex="1">
                    <mxGeometry x="5547.5" y="-1585" width="1240" height="830" as="geometry"/>
                </mxCell>
                <mxCell id="420" value="&lt;h1 style=&quot;text-align: left;&quot;&gt;&lt;font color=&quot;#000000&quot;&gt;Componentes y comportamiento de MyPostPage&lt;/font&gt;&lt;/h1&gt;&lt;p style=&quot;text-align: left;&quot;&gt;&lt;font color=&quot;#000000&quot;&gt;&amp;gt; h1 (nombre de la red social)&lt;/font&gt;&lt;/p&gt;&lt;p style=&quot;text-align: left;&quot;&gt;&lt;font color=&quot;#000000&quot;&gt;&lt;span style=&quot;&quot;&gt;&#9;&lt;/span&gt;&amp;gt; PostCard (article):&lt;/font&gt;&lt;/p&gt;&lt;p style=&quot;text-align: left;&quot;&gt;&lt;font color=&quot;#000000&quot;&gt;&lt;span style=&quot;&quot;&gt;&#9;&lt;/span&gt;&lt;span style=&quot;&quot;&gt;&#9;&lt;/span&gt;&lt;span style=&quot;white-space: pre;&quot;&gt;&#9;&lt;/span&gt;&amp;gt;&amp;nbsp;img (imagen del post)&lt;/font&gt;&lt;/p&gt;&lt;p style=&quot;text-align: left;&quot;&gt;&lt;font color=&quot;#000000&quot;&gt;&lt;span style=&quot;&quot;&gt;&#9;&lt;/span&gt;&lt;span style=&quot;&quot;&gt;&#9;&lt;/span&gt;&lt;span style=&quot;white-space: pre;&quot;&gt;&#9;&lt;/span&gt;&amp;gt;&amp;nbsp;p (cantidad de likes)&lt;br&gt;&lt;/font&gt;&lt;/p&gt;&lt;p style=&quot;text-align: left;&quot;&gt;&lt;font color=&quot;#000000&quot;&gt;&lt;span style=&quot;&quot;&gt;&#9;&lt;/span&gt;&lt;span style=&quot;&quot;&gt;&#9;&lt;/span&gt;&lt;span style=&quot;white-space: pre;&quot;&gt;&#9;&lt;/span&gt;&amp;gt;&amp;nbsp;p (descripción del post)&lt;br&gt;&lt;/font&gt;&lt;/p&gt;&lt;p style=&quot;text-align: left;&quot;&gt;&lt;font color=&quot;#000000&quot;&gt;&lt;span style=&quot;&quot;&gt;&#9;&lt;/span&gt;&lt;span style=&quot;&quot;&gt;&#9;&lt;/span&gt;&lt;span style=&quot;white-space: pre;&quot;&gt;&#9;&lt;/span&gt;&amp;gt;&amp;nbsp;p (cantidad de comentarios)&lt;br&gt;&lt;/font&gt;&lt;/p&gt;&lt;p style=&quot;text-align: left;&quot;&gt;&lt;font color=&quot;#000000&quot;&gt;&lt;span style=&quot;&quot;&gt;&#9;&lt;/span&gt;&lt;span style=&quot;&quot;&gt;&#9;&lt;/span&gt;&lt;span style=&quot;white-space: pre;&quot;&gt;&#9;&lt;/span&gt;&amp;gt;&amp;nbsp;LikeButton (button para dar me gusta, aumenta la cantidad de likes de ese post)&lt;br&gt;&lt;/font&gt;&lt;/p&gt;&lt;p style=&quot;text-align: left;&quot;&gt;&lt;font color=&quot;#000000&quot;&gt;&lt;span style=&quot;&quot;&gt;&#9;&lt;/span&gt;&lt;span style=&quot;&quot;&gt;&#9;&lt;/span&gt;&lt;span style=&quot;white-space: pre;&quot;&gt;&#9;&lt;/span&gt;&amp;gt; OpenCommentSectionButton (button que abre C)&lt;/font&gt;&lt;/p&gt;&lt;p style=&quot;text-align: left;&quot;&gt;&lt;span style=&quot;color: rgb(0, 0, 0); background-color: initial;&quot;&gt;&lt;span style=&quot;&quot;&gt;&#9;&lt;/span&gt;&lt;span style=&quot;white-space: pre;&quot;&gt;&#9;&lt;/span&gt;&amp;gt; CommentsSection (section; los comentarios propios van arriba del todo y sin link al perfil):&lt;/span&gt;&lt;/p&gt;&lt;p style=&quot;text-align: left;&quot;&gt;&lt;font color=&quot;#000000&quot;&gt;&lt;span style=&quot;&quot;&gt;&#9;&lt;span style=&quot;&quot;&gt;&#9;&lt;/span&gt;&lt;/span&gt;&lt;span style=&quot;white-space: pre;&quot;&gt;&#9;&lt;/span&gt;&lt;span style=&quot;white-space: pre;&quot;&gt;&#9;&lt;/span&gt;&amp;gt; Comment (div; si es un comentario no propio, apretarlo redirige a /profiles/:id):&lt;br&gt;&lt;/font&gt;&lt;/p&gt;&lt;p style=&quot;text-align: left;&quot;&gt;&lt;font color=&quot;#000000&quot;&gt;&lt;span style=&quot;&quot;&gt;&#9;&lt;span style=&quot;&quot;&gt;&#9;&#9;&lt;/span&gt;&lt;/span&gt;&lt;span style=&quot;white-space: pre;&quot;&gt;&#9;&lt;/span&gt;&lt;span style=&quot;white-space: pre;&quot;&gt;&#9;&lt;/span&gt;&lt;span style=&quot;white-space: pre;&quot;&gt;&#9;&lt;/span&gt;&amp;gt;&amp;nbsp;img (foto de perfil del autor del comentario)&lt;br&gt;&lt;/font&gt;&lt;/p&gt;&lt;p style=&quot;text-align: left;&quot;&gt;&lt;font color=&quot;#000000&quot;&gt;&lt;span style=&quot;&quot;&gt;&#9;&lt;span style=&quot;&quot;&gt;&#9;&#9;&lt;/span&gt;&lt;/span&gt;&lt;span style=&quot;white-space: pre;&quot;&gt;&#9;&lt;/span&gt;&lt;span style=&quot;white-space: pre;&quot;&gt;&#9;&lt;/span&gt;&lt;span style=&quot;white-space: pre;&quot;&gt;&#9;&lt;/span&gt;&amp;gt;&amp;nbsp;h3 (nombre de usuario del autor del comentario)&lt;br&gt;&lt;/font&gt;&lt;/p&gt;&lt;p style=&quot;text-align: left;&quot;&gt;&lt;font color=&quot;#000000&quot;&gt;&lt;span style=&quot;&quot;&gt;&#9;&lt;span style=&quot;&quot;&gt;&#9;&#9;&lt;/span&gt;&lt;/span&gt;&lt;span style=&quot;white-space: pre;&quot;&gt;&#9;&lt;/span&gt;&lt;span style=&quot;white-space: pre;&quot;&gt;&#9;&lt;/span&gt;&lt;span style=&quot;white-space: pre;&quot;&gt;&#9;&lt;/span&gt;&amp;gt;&amp;nbsp;p (lo escrito en el comentario)&lt;/font&gt;&lt;/p&gt;&lt;p style=&quot;text-align: left;&quot;&gt;&lt;font color=&quot;#000000&quot;&gt;&lt;span style=&quot;&quot;&gt;&#9;&lt;/span&gt;&lt;span style=&quot;&quot;&gt;&#9;&lt;/span&gt;&lt;span style=&quot;white-space: pre;&quot;&gt;&#9;&lt;/span&gt;&lt;span style=&quot;white-space: pre;&quot;&gt;&#9;&lt;/span&gt;&amp;gt; MyComment (div; comentarios propios con la opción de editarlos o eliminarlos):&lt;br&gt;&lt;/font&gt;&lt;/p&gt;&lt;p style=&quot;text-align: left;&quot;&gt;&lt;font color=&quot;#000000&quot;&gt;&lt;span style=&quot;&quot;&gt;&#9;&lt;/span&gt;&lt;span style=&quot;&quot;&gt;&#9;&lt;/span&gt;&lt;span style=&quot;&quot;&gt;&#9;&lt;/span&gt;&lt;span style=&quot;white-space: pre;&quot;&gt;&#9;&lt;/span&gt;&lt;span style=&quot;white-space: pre;&quot;&gt;&#9;&lt;/span&gt;&lt;span style=&quot;white-space: pre;&quot;&gt;&#9;&lt;/span&gt;&amp;gt; img (foto de perfil propia)&lt;br&gt;&lt;/font&gt;&lt;/p&gt;&lt;p style=&quot;text-align: left;&quot;&gt;&lt;font color=&quot;#000000&quot;&gt;&lt;span style=&quot;&quot;&gt;&#9;&lt;/span&gt;&lt;span style=&quot;&quot;&gt;&#9;&lt;/span&gt;&lt;span style=&quot;&quot;&gt;&#9;&lt;/span&gt;&lt;span style=&quot;white-space: pre;&quot;&gt;&#9;&lt;/span&gt;&lt;span style=&quot;white-space: pre;&quot;&gt;&#9;&lt;/span&gt;&lt;span style=&quot;white-space: pre;&quot;&gt;&#9;&lt;/span&gt;&amp;gt; h3 (nombre propio de usuario)&lt;br&gt;&lt;/font&gt;&lt;/p&gt;&lt;p style=&quot;text-align: left;&quot;&gt;&lt;font color=&quot;#000000&quot;&gt;&lt;span style=&quot;&quot;&gt;&#9;&lt;/span&gt;&lt;span style=&quot;&quot;&gt;&#9;&lt;/span&gt;&lt;span style=&quot;&quot;&gt;&#9;&lt;/span&gt;&lt;span style=&quot;white-space: pre;&quot;&gt;&#9;&lt;/span&gt;&lt;span style=&quot;white-space: pre;&quot;&gt;&#9;&lt;/span&gt;&lt;span style=&quot;white-space: pre;&quot;&gt;&#9;&lt;/span&gt;&amp;gt; p (lo escrito)&lt;br&gt;&lt;/font&gt;&lt;/p&gt;&lt;p style=&quot;text-align: left;&quot;&gt;&lt;font color=&quot;#000000&quot;&gt;&lt;span style=&quot;&quot;&gt;&#9;&lt;/span&gt;&lt;span style=&quot;&quot;&gt;&#9;&lt;/span&gt;&lt;span style=&quot;&quot;&gt;&#9;&lt;/span&gt;&lt;span style=&quot;white-space: pre;&quot;&gt;&#9;&lt;/span&gt;&lt;span style=&quot;white-space: pre;&quot;&gt;&#9;&lt;/span&gt;&lt;span style=&quot;white-space: pre;&quot;&gt;&#9;&lt;/span&gt;&amp;gt; DeleteCommentButton (button que elimina el comentario propio)&lt;br&gt;&lt;/font&gt;&lt;/p&gt;&lt;p style=&quot;text-align: left;&quot;&gt;&lt;font color=&quot;#000000&quot;&gt;&lt;span style=&quot;&quot;&gt;&#9;&lt;/span&gt;&lt;span style=&quot;&quot;&gt;&#9;&lt;/span&gt;&lt;span style=&quot;&quot;&gt;&#9;&lt;/span&gt;&lt;span style=&quot;white-space: pre;&quot;&gt;&#9;&lt;/span&gt;&lt;span style=&quot;white-space: pre;&quot;&gt;&#9;&lt;/span&gt;&lt;span style=&quot;white-space: pre;&quot;&gt;&#9;&lt;/span&gt;&amp;gt; EditCommentButton (button que transforma el p (contenido del comentario) en un input y&lt;br&gt;&lt;/font&gt;&lt;/p&gt;&lt;p style=&quot;text-align: left;&quot;&gt;&lt;font color=&quot;#000000&quot;&gt;&lt;span style=&quot;&quot;&gt;&#9;&lt;/span&gt;&lt;span style=&quot;&quot;&gt;&#9;&lt;/span&gt;&lt;span style=&quot;&quot;&gt;&#9;&lt;/span&gt;&lt;span style=&quot;white-space: pre;&quot;&gt;&#9;&lt;/span&gt;&lt;span style=&quot;white-space: pre;&quot;&gt;&#9;&lt;/span&gt;&lt;span style=&quot;white-space: pre;&quot;&gt;&#9;&lt;/span&gt;le coloca el focus. Cuando se apreta el button de nuevo, edita el comentario.&lt;br&gt;&lt;/font&gt;&lt;/p&gt;&lt;p style=&quot;text-align: left;&quot;&gt;&lt;font color=&quot;#000000&quot;&gt;&lt;span style=&quot;&quot;&gt;&#9;&lt;span style=&quot;&quot;&gt;&#9;&lt;/span&gt;&lt;/span&gt;&lt;span style=&quot;white-space: pre;&quot;&gt;&#9;&lt;/span&gt;&lt;span style=&quot;white-space: pre;&quot;&gt;&#9;&lt;/span&gt;&amp;gt; CreateCommentForm (form):&lt;br&gt;&lt;/font&gt;&lt;/p&gt;&lt;p style=&quot;text-align: left;&quot;&gt;&lt;font color=&quot;#000000&quot;&gt;&lt;span style=&quot;&quot;&gt;&#9;&lt;/span&gt;&lt;span style=&quot;&quot;&gt;&#9;&lt;span style=&quot;&quot;&gt;&#9;&lt;/span&gt;&lt;/span&gt;&lt;span style=&quot;white-space: pre;&quot;&gt;&#9;&lt;/span&gt;&lt;span style=&quot;white-space: pre;&quot;&gt;&#9;&lt;/span&gt;&lt;span style=&quot;white-space: pre;&quot;&gt;&#9;&lt;/span&gt;&amp;gt; NormalInput (input para el contenido del comentario)&lt;br&gt;&lt;/font&gt;&lt;/p&gt;&lt;p style=&quot;text-align: left;&quot;&gt;&lt;font color=&quot;#000000&quot;&gt;&lt;span style=&quot;&quot;&gt;&#9;&lt;/span&gt;&lt;span style=&quot;&quot;&gt;&#9;&lt;span style=&quot;&quot;&gt;&#9;&lt;/span&gt;&lt;/span&gt;&lt;span style=&quot;white-space: pre;&quot;&gt;&#9;&lt;/span&gt;&lt;span style=&quot;white-space: pre;&quot;&gt;&#9;&lt;/span&gt;&lt;span style=&quot;white-space: pre;&quot;&gt;&#9;&lt;/span&gt;&amp;gt; CreateCommentButton (button para crear el comentario)&lt;/font&gt;&lt;/p&gt;&lt;p style=&quot;text-align: left;&quot;&gt;&lt;font color=&quot;#000000&quot;&gt;&lt;span style=&quot;&quot;&gt;&#9;&lt;/span&gt;&lt;span style=&quot;&quot;&gt;&#9;&lt;/span&gt;&lt;span style=&quot;white-space: pre;&quot;&gt;&#9;&lt;/span&gt;&lt;span style=&quot;white-space: pre;&quot;&gt;&#9;&lt;/span&gt;&amp;gt; CloseCommentSectionButton (button que cierra la sección de comentarios)&lt;/font&gt;&lt;/p&gt;&lt;p style=&quot;text-align: left;&quot;&gt;&lt;span style=&quot;color: rgb(0, 0, 0); background-color: initial;&quot;&gt;&lt;span style=&quot;&quot;&gt;&#9;&lt;/span&gt;&lt;/span&gt;&lt;/p&gt;&lt;p style=&quot;text-align: left;&quot;&gt;&lt;font color=&quot;#000000&quot;&gt;&amp;gt; Navbar (nav):&lt;/font&gt;&lt;/p&gt;&lt;p style=&quot;text-align: left;&quot;&gt;&lt;font color=&quot;#000000&quot;&gt;&lt;span style=&quot;&quot;&gt;&#9;&lt;/span&gt;&lt;span style=&quot;&quot;&gt;&#9;&lt;/span&gt;&lt;span style=&quot;&quot;&gt;&#9;&lt;/span&gt;&lt;span style=&quot;&quot;&gt;&#9;&lt;/span&gt;&lt;span style=&quot;&quot;&gt;&#9;&lt;/span&gt;- Ya vista en /myfeed&lt;/font&gt;&lt;/p&gt;" style="text;html=1;strokeColor=none;fillColor=none;spacing=5;spacingTop=-20;whiteSpace=wrap;overflow=hidden;rounded=0;align=center;" parent="1" vertex="1">
                    <mxGeometry x="6041.88" y="-1552.5" width="750" height="767.5" as="geometry"/>
                </mxCell>
                <mxCell id="426" value="&lt;font color=&quot;#000000&quot;&gt;TERMINADO&lt;/font&gt;" style="text;html=1;strokeColor=none;fillColor=none;align=center;verticalAlign=middle;whiteSpace=wrap;rounded=0;fontSize=20;fontColor=#FF9933;" parent="1" vertex="1">
                    <mxGeometry x="5827.5" y="-1465" width="60" height="30" as="geometry"/>
                </mxCell>
                <mxCell id="428" value="" style="rounded=1;whiteSpace=wrap;html=1;fontSize=40;fontColor=#ffffff;fillColor=#60a917;strokeColor=#2D7600;" parent="1" vertex="1">
                    <mxGeometry x="4123.75" y="-410" width="1612.5" height="1143.75" as="geometry"/>
                </mxCell>
                <mxCell id="429" value="" style="rounded=0;whiteSpace=wrap;html=1;" parent="1" vertex="1">
                    <mxGeometry x="4163.75" y="-316.25" width="240" height="480" as="geometry"/>
                </mxCell>
                <mxCell id="430" value="/myprofile/edit" style="text;html=1;strokeColor=none;fillColor=none;align=center;verticalAlign=middle;whiteSpace=wrap;rounded=0;" parent="1" vertex="1">
                    <mxGeometry x="4163.75" y="-346.25" width="100" height="30" as="geometry"/>
                </mxCell>
                <mxCell id="438" value="Editar perfil" style="rounded=0;whiteSpace=wrap;html=1;fontSize=12;fontColor=#FFFFFF;" parent="1" vertex="1">
                    <mxGeometry x="4163.75" y="-316.25" width="240" height="35" as="geometry"/>
                </mxCell>
                <mxCell id="448" value="&lt;h1 style=&quot;text-align: left;&quot;&gt;&lt;font color=&quot;#000000&quot;&gt;Componentes y comportamiento de EditMyProfilePage&lt;/font&gt;&lt;/h1&gt;&lt;p style=&quot;text-align: left;&quot;&gt;&lt;font color=&quot;#000000&quot;&gt;&amp;gt; h1 (título)&lt;/font&gt;&lt;/p&gt;&lt;p style=&quot;text-align: left;&quot;&gt;&lt;font color=&quot;#000000&quot;&gt;&amp;gt; OpenEditModal (button)&amp;nbsp;&lt;/font&gt;&lt;/p&gt;&lt;p style=&quot;text-align: left;&quot;&gt;&lt;font color=&quot;#000000&quot;&gt;&lt;span style=&quot;white-space: pre;&quot;&gt;&#9;&lt;/span&gt;- hay 4 instancias de este botón que manejan como se renderiza el EditMyProfileForm.&lt;br&gt;&lt;/font&gt;&lt;/p&gt;&lt;p style=&quot;text-align: left;&quot;&gt;&lt;font color=&quot;#000000&quot;&gt;&amp;gt; EditMyProfileForm (article):&lt;/font&gt;&lt;/p&gt;&lt;p style=&quot;text-align: left;&quot;&gt;&lt;font color=&quot;#000000&quot;&gt;&lt;span style=&quot;white-space: pre;&quot;&gt;&#9;&lt;/span&gt;&amp;gt; h2 (título del modal)&lt;br&gt;&lt;/font&gt;&lt;/p&gt;&lt;p style=&quot;text-align: left;&quot;&gt;&lt;font color=&quot;#000000&quot;&gt;&lt;span style=&quot;white-space: pre;&quot;&gt;&#9;&lt;/span&gt;&amp;gt; NomalInput (input respectivo para cada modal)&lt;br&gt;&lt;/font&gt;&lt;/p&gt;&lt;p style=&quot;text-align: left;&quot;&gt;&lt;font color=&quot;#000000&quot;&gt;&lt;span style=&quot;white-space: pre;&quot;&gt;&#9;&lt;/span&gt;- hay tantos inputs como necesite el form&lt;br&gt;&lt;/font&gt;&lt;/p&gt;&lt;p style=&quot;text-align: left;&quot;&gt;&lt;font color=&quot;#000000&quot;&gt;&lt;span style=&quot;white-space: pre;&quot;&gt;&#9;&lt;/span&gt;&amp;gt; AcceptEditMyProfileButton (button que edita el perfil y cierra el EditMyProfileForm)&lt;br&gt;&lt;/font&gt;&lt;/p&gt;&lt;p style=&quot;text-align: left;&quot;&gt;&lt;font color=&quot;#000000&quot;&gt;&lt;span style=&quot;white-space: pre;&quot;&gt;&#9;&lt;/span&gt;&amp;gt;CancelEditMyProfileButton (button que limpia los input y cierra el EditMyProfileForm)&lt;br&gt;&lt;/font&gt;&lt;/p&gt;&lt;p style=&quot;text-align: left;&quot;&gt;&lt;font color=&quot;#000000&quot;&gt;&amp;gt; GoToMyProfilePageButton (button que redirige a /myprofile)&lt;/font&gt;&lt;/p&gt;&lt;p style=&quot;text-align: left;&quot;&gt;&lt;font color=&quot;#000000&quot;&gt;&lt;br&gt;&lt;/font&gt;&lt;/p&gt;&lt;p style=&quot;text-align: left;&quot;&gt;&lt;br&gt;&lt;/p&gt;" style="text;html=1;strokeColor=none;fillColor=none;spacing=5;spacingTop=-20;whiteSpace=wrap;overflow=hidden;rounded=0;align=center;" parent="1" vertex="1">
                    <mxGeometry x="5123.75" y="-323.75" width="577.5" height="585" as="geometry"/>
                </mxCell>
                <mxCell id="456" value="EDITAR NOMBRE" style="rounded=1;whiteSpace=wrap;html=1;labelBackgroundColor=none;fontSize=10;fillColor=#1ba1e2;fontColor=#ffffff;strokeColor=#006EAF;" parent="1" vertex="1">
                    <mxGeometry x="4223.75" y="-182.5" width="120" height="60" as="geometry"/>
                </mxCell>
                <mxCell id="457" value="EDITAR EMAIL" style="rounded=1;whiteSpace=wrap;html=1;labelBackgroundColor=none;fontSize=10;fillColor=#1ba1e2;fontColor=#ffffff;strokeColor=#006EAF;" parent="1" vertex="1">
                    <mxGeometry x="4223.75" y="-106.25" width="120" height="60" as="geometry"/>
                </mxCell>
                <mxCell id="458" value="VOLVER A MI PERFIL" style="rounded=1;whiteSpace=wrap;html=1;labelBackgroundColor=none;fontSize=10;fillColor=#1ba1e2;fontColor=#ffffff;strokeColor=#006EAF;" parent="1" vertex="1">
                    <mxGeometry x="4223.75" y="48.75" width="120" height="60" as="geometry"/>
                </mxCell>
                <mxCell id="459" value="" style="rounded=0;whiteSpace=wrap;html=1;" parent="1" vertex="1">
                    <mxGeometry x="4483.75" y="-321.25" width="240" height="480" as="geometry"/>
                </mxCell>
                <mxCell id="461" value="Editar perfil" style="rounded=0;whiteSpace=wrap;html=1;fontSize=12;fontColor=#FFFFFF;" parent="1" vertex="1">
                    <mxGeometry x="4483.75" y="-321.25" width="240" height="35" as="geometry"/>
                </mxCell>
                <mxCell id="466" value="/myprofile/edit" style="text;html=1;strokeColor=none;fillColor=none;align=center;verticalAlign=middle;whiteSpace=wrap;rounded=0;" parent="1" vertex="1">
                    <mxGeometry x="4483.75" y="-351.25" width="100" height="30" as="geometry"/>
                </mxCell>
                <mxCell id="467" value="Admin2" style="rounded=1;whiteSpace=wrap;html=1;labelBackgroundColor=none;fontSize=10;align=center;fillColor=#a20025;fontColor=#ffffff;strokeColor=#6F0000;" parent="1" vertex="1">
                    <mxGeometry x="4533.75" y="-200" width="150" height="22.5" as="geometry"/>
                </mxCell>
                <mxCell id="468" value="Nuevo nombre" style="text;html=1;strokeColor=none;fillColor=none;align=center;verticalAlign=middle;whiteSpace=wrap;rounded=0;labelBackgroundColor=none;fontSize=10;" parent="1" vertex="1">
                    <mxGeometry x="4533.75" y="-230" width="80" height="30" as="geometry"/>
                </mxCell>
                <mxCell id="471" value="ACEPTAR" style="rounded=1;whiteSpace=wrap;html=1;labelBackgroundColor=none;fontSize=10;fillColor=#1ba1e2;fontColor=#ffffff;strokeColor=#006EAF;" parent="1" vertex="1">
                    <mxGeometry x="4548.75" y="-36.25" width="120" height="60" as="geometry"/>
                </mxCell>
                <mxCell id="472" value="CANCELAR" style="rounded=1;whiteSpace=wrap;html=1;labelBackgroundColor=none;fontSize=10;fillColor=#1ba1e2;fontColor=#ffffff;strokeColor=#006EAF;" parent="1" vertex="1">
                    <mxGeometry x="4548.75" y="48.75" width="120" height="60" as="geometry"/>
                </mxCell>
                <mxCell id="473" value="CAMBIAR NOMBRE" style="text;html=1;strokeColor=none;fillColor=none;align=center;verticalAlign=middle;whiteSpace=wrap;rounded=0;labelBackgroundColor=none;fontSize=10;" parent="1" vertex="1">
                    <mxGeometry x="4546.25" y="-266.25" width="115" height="30" as="geometry"/>
                </mxCell>
                <mxCell id="491" style="edgeStyle=none;html=1;entryX=0;entryY=0.5;entryDx=0;entryDy=0;fontSize=20;" parent="1" target="254" edge="1">
                    <mxGeometry relative="1" as="geometry">
                        <mxPoint x="540" y="-2610" as="sourcePoint"/>
                    </mxGeometry>
                </mxCell>
                <mxCell id="485" value="&lt;font style=&quot;font-size: 20px;&quot;&gt;USAR NAVBAR&lt;/font&gt;" style="ellipse;whiteSpace=wrap;html=1;aspect=fixed;labelBackgroundColor=none;fontSize=10;fillColor=#a20025;fontColor=#ffffff;strokeColor=#6F0000;" parent="1" vertex="1">
                    <mxGeometry x="410" y="-2720" width="140" height="140" as="geometry"/>
                </mxCell>
                <mxCell id="487" value="" style="endArrow=classic;startArrow=classic;html=1;fontSize=20;entryX=0.5;entryY=1;entryDx=0;entryDy=0;" parent="1" source="253" target="485" edge="1">
                    <mxGeometry width="50" height="50" relative="1" as="geometry">
                        <mxPoint x="640" y="-2390" as="sourcePoint"/>
                        <mxPoint x="690" y="-2440" as="targetPoint"/>
                    </mxGeometry>
                </mxCell>
                <mxCell id="490" value="" style="endArrow=classic;startArrow=classic;html=1;fontSize=20;exitX=0.5;exitY=0;exitDx=0;exitDy=0;entryX=0.5;entryY=1;entryDx=0;entryDy=0;" parent="1" source="255" target="254" edge="1">
                    <mxGeometry width="50" height="50" relative="1" as="geometry">
                        <mxPoint x="810" y="-2340" as="sourcePoint"/>
                        <mxPoint x="860" y="-2390" as="targetPoint"/>
                    </mxGeometry>
                </mxCell>
                <mxCell id="494" value="" style="endArrow=classic;startArrow=classic;html=1;fontSize=20;entryX=0.733;entryY=0.952;entryDx=0;entryDy=0;entryPerimeter=0;exitX=0;exitY=0;exitDx=0;exitDy=0;" parent="1" source="255" target="485" edge="1">
                    <mxGeometry width="50" height="50" relative="1" as="geometry">
                        <mxPoint x="650" y="-2380" as="sourcePoint"/>
                        <mxPoint x="700" y="-2430" as="targetPoint"/>
                    </mxGeometry>
                </mxCell>
                <mxCell id="495" value="&lt;h1&gt;Lo rojo son las rutas a las que lleva el navbar.&lt;/h1&gt;" style="text;html=1;strokeColor=none;fillColor=none;spacing=5;spacingTop=-20;whiteSpace=wrap;overflow=hidden;rounded=0;labelBackgroundColor=none;fontSize=20;" parent="1" vertex="1">
                    <mxGeometry x="-270" y="-3366.87" width="290" height="266.87" as="geometry"/>
                </mxCell>
                <mxCell id="496" value="" style="rounded=0;whiteSpace=wrap;html=1;" parent="1" vertex="1">
                    <mxGeometry x="2822.5" y="-1350" width="240" height="480" as="geometry"/>
                </mxCell>
                <mxCell id="497" value="/myfeed" style="text;html=1;strokeColor=none;fillColor=none;align=center;verticalAlign=middle;whiteSpace=wrap;rounded=0;" parent="1" vertex="1">
                    <mxGeometry x="2822.5" y="-1380" width="60" height="30" as="geometry"/>
                </mxCell>
                <mxCell id="498" value="&lt;font color=&quot;#ffffff&quot;&gt;imagen&lt;/font&gt;" style="whiteSpace=wrap;html=1;aspect=fixed;fontSize=40;fontColor=#ffffff;fillColor=#d80073;strokeColor=#A50040;" parent="1" vertex="1">
                    <mxGeometry x="2842.5" y="-1270" width="200" height="200" as="geometry"/>
                </mxCell>
                <mxCell id="499" value="" style="rounded=1;whiteSpace=wrap;html=1;fontSize=40;fontColor=#FFFFFF;" parent="1" vertex="1">
                    <mxGeometry x="2842.5" y="-1305" width="200" height="35" as="geometry"/>
                </mxCell>
                <mxCell id="500" value="" style="ellipse;whiteSpace=wrap;html=1;aspect=fixed;fontSize=40;fontColor=#ffffff;fillColor=#d80073;strokeColor=#A50040;" parent="1" vertex="1">
                    <mxGeometry x="2847.5" y="-1302.5" width="30" height="30" as="geometry"/>
                </mxCell>
                <mxCell id="501" value="&lt;span style=&quot;font-size: 12px;&quot;&gt;Example&lt;/span&gt;" style="text;html=1;strokeColor=none;fillColor=none;align=left;verticalAlign=middle;whiteSpace=wrap;rounded=0;fontSize=40;fontColor=#FFFFFF;" parent="1" vertex="1">
                    <mxGeometry x="2892.5" y="-1305" width="140" height="20" as="geometry"/>
                </mxCell>
                <mxCell id="502" value="" style="rounded=0;whiteSpace=wrap;html=1;fontSize=12;fontColor=#FFFFFF;" parent="1" vertex="1">
                    <mxGeometry x="2822.5" y="-915" width="240" height="45" as="geometry"/>
                </mxCell>
                <mxCell id="503" value="&lt;font style=&quot;font-size: 7px;&quot;&gt;INICIO (FEED)&lt;/font&gt;" style="rounded=1;whiteSpace=wrap;html=1;fontSize=12;fontColor=#ffffff;fillColor=#1ba1e2;strokeColor=#006EAF;" parent="1" vertex="1">
                    <mxGeometry x="2832.5" y="-905" width="60" height="25" as="geometry"/>
                </mxCell>
                <mxCell id="504" value="&lt;font style=&quot;font-size: 9px;&quot;&gt;PERFIL&lt;/font&gt;" style="ellipse;whiteSpace=wrap;html=1;fontSize=12;fontColor=#ffffff;fillColor=#d80073;strokeColor=#A50040;" parent="1" vertex="1">
                    <mxGeometry x="2985" y="-912.5" width="60" height="40" as="geometry"/>
                </mxCell>
                <mxCell id="505" value="Nombre de la red social" style="rounded=0;whiteSpace=wrap;html=1;fontSize=12;fontColor=#FFFFFF;" parent="1" vertex="1">
                    <mxGeometry x="2822.5" y="-1350" width="240" height="35" as="geometry"/>
                </mxCell>
                <mxCell id="506" value="&lt;font style=&quot;font-size: 8px;&quot;&gt;SUBIR&lt;br&gt;FOTO&lt;/font&gt;" style="ellipse;whiteSpace=wrap;html=1;aspect=fixed;fontSize=12;fontColor=#ffffff;fillColor=#1ba1e2;strokeColor=#006EAF;" parent="1" vertex="1">
                    <mxGeometry x="2923.75" y="-912.5" width="37.5" height="37.5" as="geometry"/>
                </mxCell>
                <mxCell id="522" value="" style="rounded=0;whiteSpace=wrap;html=1;" parent="1" vertex="1">
                    <mxGeometry x="2822.5" y="-1085" width="240" height="170" as="geometry"/>
                </mxCell>
                <mxCell id="507" value="" style="rounded=0;whiteSpace=wrap;html=1;fontSize=8;fontColor=#FFFFFF;" parent="1" vertex="1">
                    <mxGeometry x="2841.25" y="-1070" width="201.25" height="150" as="geometry"/>
                </mxCell>
                <mxCell id="509" value="" style="rounded=0;whiteSpace=wrap;html=1;fontSize=20;" parent="1" vertex="1">
                    <mxGeometry x="2841.25" y="-970" width="197.5" height="50" as="geometry"/>
                </mxCell>
                <mxCell id="510" value="" style="ellipse;whiteSpace=wrap;html=1;aspect=fixed;fontSize=40;fontColor=#ffffff;fillColor=#d80073;strokeColor=#A50040;" parent="1" vertex="1">
                    <mxGeometry x="2847.5" y="-967.5" width="20" height="20" as="geometry"/>
                </mxCell>
                <mxCell id="511" value="&lt;span style=&quot;font-size: 12px;&quot;&gt;Example&lt;/span&gt;" style="text;html=1;strokeColor=none;fillColor=none;align=left;verticalAlign=middle;whiteSpace=wrap;rounded=0;fontSize=40;fontColor=#FFFFFF;" parent="1" vertex="1">
                    <mxGeometry x="2870" y="-972.5" width="140" height="10" as="geometry"/>
                </mxCell>
                <mxCell id="513" value="ENVIAR" style="rounded=1;whiteSpace=wrap;html=1;fontSize=10;fillColor=#1ba1e2;fontColor=#ffffff;strokeColor=#006EAF;" parent="1" vertex="1">
                    <mxGeometry x="2980" y="-943.75" width="62.5" height="23.75" as="geometry"/>
                </mxCell>
                <mxCell id="514" value="Hola, Mundo" style="text;html=1;strokeColor=none;fillColor=none;align=center;verticalAlign=middle;whiteSpace=wrap;rounded=0;fontSize=10;" parent="1" vertex="1">
                    <mxGeometry x="2870" y="-955" width="60" height="30" as="geometry"/>
                </mxCell>
                <mxCell id="515" value="" style="rounded=0;whiteSpace=wrap;html=1;fontSize=20;" parent="1" vertex="1">
                    <mxGeometry x="2841.25" y="-1070" width="197.5" height="50" as="geometry"/>
                </mxCell>
                <mxCell id="516" value="&lt;span style=&quot;font-size: 12px;&quot;&gt;Admin&lt;/span&gt;" style="text;html=1;strokeColor=none;fillColor=none;align=left;verticalAlign=middle;whiteSpace=wrap;rounded=0;fontSize=40;fontColor=#FFFFFF;" parent="1" vertex="1">
                    <mxGeometry x="2871.88" y="-1071.25" width="140" height="10" as="geometry"/>
                </mxCell>
                <mxCell id="517" value="" style="ellipse;whiteSpace=wrap;html=1;aspect=fixed;fontSize=40;fontColor=#ffffff;fillColor=#d80073;strokeColor=#A50040;" parent="1" vertex="1">
                    <mxGeometry x="2845" y="-1065" width="20" height="20" as="geometry"/>
                </mxCell>
                <mxCell id="518" value="Hola a todos" style="text;html=1;strokeColor=none;fillColor=none;align=center;verticalAlign=middle;whiteSpace=wrap;rounded=0;fontSize=10;" parent="1" vertex="1">
                    <mxGeometry x="2871.88" y="-1047.5" width="60" height="30" as="geometry"/>
                </mxCell>
                <mxCell id="523" value="" style="rounded=0;whiteSpace=wrap;html=1;fontSize=20;" parent="1" vertex="1">
                    <mxGeometry x="2841.25" y="-1020" width="197.5" height="50" as="geometry"/>
                </mxCell>
                <mxCell id="524" value="&lt;span style=&quot;font-size: 12px;&quot;&gt;Admin&lt;/span&gt;" style="text;html=1;strokeColor=none;fillColor=none;align=left;verticalAlign=middle;whiteSpace=wrap;rounded=0;fontSize=40;fontColor=#FFFFFF;" parent="1" vertex="1">
                    <mxGeometry x="2870" y="-1020" width="140" height="10" as="geometry"/>
                </mxCell>
                <mxCell id="526" value="" style="ellipse;whiteSpace=wrap;html=1;aspect=fixed;fontSize=40;fontColor=#ffffff;fillColor=#d80073;strokeColor=#A50040;" parent="1" vertex="1">
                    <mxGeometry x="2845" y="-1015" width="20" height="20" as="geometry"/>
                </mxCell>
                <mxCell id="527" value="Hola" style="text;html=1;strokeColor=none;fillColor=none;align=center;verticalAlign=middle;whiteSpace=wrap;rounded=0;fontSize=10;" parent="1" vertex="1">
                    <mxGeometry x="2852.5" y="-1000" width="60" height="30" as="geometry"/>
                </mxCell>
                <mxCell id="512" value="Escribe un comentario..." style="rounded=0;whiteSpace=wrap;html=1;fontSize=10;fillColor=#a20025;fontColor=#ffffff;strokeColor=#6F0000;" parent="1" vertex="1">
                    <mxGeometry x="2841.25" y="-943.75" width="138.75" height="23.75" as="geometry"/>
                </mxCell>
                <mxCell id="528" value="&lt;font style=&quot;font-size: 8px;&quot;&gt;EDITAR&lt;/font&gt;" style="rounded=1;whiteSpace=wrap;html=1;fillColor=#1ba1e2;fontColor=#ffffff;strokeColor=#006EAF;" parent="1" vertex="1">
                    <mxGeometry x="3001.88" y="-1035" width="30.62" height="10" as="geometry"/>
                </mxCell>
                <mxCell id="529" value="&lt;font style=&quot;font-size: 8px;&quot;&gt;EDITAR&lt;/font&gt;" style="rounded=1;whiteSpace=wrap;html=1;fillColor=#1ba1e2;fontColor=#ffffff;strokeColor=#006EAF;" parent="1" vertex="1">
                    <mxGeometry x="3001.88" y="-987.5" width="30.62" height="10" as="geometry"/>
                </mxCell>
                <mxCell id="530" value="CERRAR" style="rounded=0;whiteSpace=wrap;html=1;fontSize=8;fillColor=#1ba1e2;fontColor=#ffffff;strokeColor=#006EAF;" parent="1" vertex="1">
                    <mxGeometry x="2822.5" y="-1100" width="240" height="20" as="geometry"/>
                </mxCell>
                <mxCell id="532" value="&lt;span style=&quot;font-size: 8px;&quot;&gt;BORRAR&lt;/span&gt;" style="rounded=1;whiteSpace=wrap;html=1;fillColor=#1ba1e2;fontColor=#ffffff;strokeColor=#006EAF;" parent="1" vertex="1">
                    <mxGeometry x="2961.25" y="-1035" width="30.62" height="10" as="geometry"/>
                </mxCell>
                <mxCell id="534" value="&lt;span style=&quot;font-size: 8px;&quot;&gt;BORRAR&lt;/span&gt;" style="rounded=1;whiteSpace=wrap;html=1;fillColor=#1ba1e2;fontColor=#ffffff;strokeColor=#006EAF;" parent="1" vertex="1">
                    <mxGeometry x="2961.25" y="-987.5" width="30.62" height="10" as="geometry"/>
                </mxCell>
                <mxCell id="536" value="" style="rounded=0;whiteSpace=wrap;html=1;" parent="1" vertex="1">
                    <mxGeometry x="5587.5" y="-1315" width="240" height="480" as="geometry"/>
                </mxCell>
                <mxCell id="537" value="/myposts/:id" style="text;html=1;strokeColor=none;fillColor=none;align=center;verticalAlign=middle;whiteSpace=wrap;rounded=0;" parent="1" vertex="1">
                    <mxGeometry x="5587.5" y="-1345" width="60" height="30" as="geometry"/>
                </mxCell>
                <mxCell id="538" value="&lt;font color=&quot;#ffffff&quot;&gt;imagen&lt;/font&gt;" style="whiteSpace=wrap;html=1;aspect=fixed;fontSize=40;fontColor=#ffffff;fillColor=#d80073;strokeColor=#A50040;" parent="1" vertex="1">
                    <mxGeometry x="5607.5" y="-1235" width="205" height="205" as="geometry"/>
                </mxCell>
                <mxCell id="542" value="" style="rounded=0;whiteSpace=wrap;html=1;fontSize=12;fontColor=#FFFFFF;" parent="1" vertex="1">
                    <mxGeometry x="5587.5" y="-880" width="240" height="45" as="geometry"/>
                </mxCell>
                <mxCell id="543" value="&lt;font style=&quot;font-size: 7px;&quot;&gt;INICIO (FEED)&lt;/font&gt;" style="rounded=1;whiteSpace=wrap;html=1;fontSize=12;fontColor=#ffffff;fillColor=#1ba1e2;strokeColor=#006EAF;" parent="1" vertex="1">
                    <mxGeometry x="5597.5" y="-870" width="60" height="25" as="geometry"/>
                </mxCell>
                <mxCell id="544" value="&lt;font style=&quot;font-size: 9px;&quot;&gt;PERFIL&lt;/font&gt;" style="ellipse;whiteSpace=wrap;html=1;fontSize=12;fontColor=#ffffff;fillColor=#d80073;strokeColor=#A50040;" parent="1" vertex="1">
                    <mxGeometry x="5750" y="-877.5" width="60" height="40" as="geometry"/>
                </mxCell>
                <mxCell id="545" value="Nombre de la red social" style="rounded=0;whiteSpace=wrap;html=1;fontSize=12;fontColor=#FFFFFF;" parent="1" vertex="1">
                    <mxGeometry x="5587.5" y="-1315" width="240" height="35" as="geometry"/>
                </mxCell>
                <mxCell id="546" value="&lt;font style=&quot;font-size: 8px;&quot;&gt;SUBIR&lt;br&gt;FOTO&lt;/font&gt;" style="ellipse;whiteSpace=wrap;html=1;aspect=fixed;fontSize=12;fontColor=#ffffff;fillColor=#1ba1e2;strokeColor=#006EAF;" parent="1" vertex="1">
                    <mxGeometry x="5688.75" y="-877.5" width="37.5" height="37.5" as="geometry"/>
                </mxCell>
                <mxCell id="547" value="" style="rounded=0;whiteSpace=wrap;html=1;fontSize=8;fontColor=#FFFFFF;" parent="1" vertex="1">
                    <mxGeometry x="5607.5" y="-1027.5" width="202.5" height="52.5" as="geometry"/>
                </mxCell>
                <mxCell id="548" value="Número de likes&lt;br&gt;Descripción de la foto&lt;br&gt;Número de comentarios" style="text;html=1;strokeColor=none;fillColor=none;align=left;verticalAlign=middle;whiteSpace=wrap;rounded=0;fontSize=8;fontColor=#FFFFFF;" parent="1" vertex="1">
                    <mxGeometry x="5610" y="-1027.5" width="200" height="32.5" as="geometry"/>
                </mxCell>
                <mxCell id="549" value="ME GUSTA" style="ellipse;whiteSpace=wrap;html=1;fontSize=9;fontColor=#ffffff;fillColor=#1ba1e2;strokeColor=#006EAF;" parent="1" vertex="1">
                    <mxGeometry x="5736.25" y="-1021.25" width="60" height="20" as="geometry"/>
                </mxCell>
                <mxCell id="554" style="edgeStyle=none;html=1;exitX=0.5;exitY=1;exitDx=0;exitDy=0;fontSize=10;" parent="1" source="555" target="547" edge="1">
                    <mxGeometry relative="1" as="geometry"/>
                </mxCell>
                <mxCell id="555" value="&lt;font style=&quot;font-size: 10px;&quot;&gt;ver comentarios&lt;/font&gt;" style="rounded=1;whiteSpace=wrap;html=1;fontSize=20;fillColor=#1ba1e2;fontColor=#ffffff;strokeColor=#006EAF;" parent="1" vertex="1">
                    <mxGeometry x="5607.5" y="-990" width="80" height="15" as="geometry"/>
                </mxCell>
                <mxCell id="556" value="" style="rounded=0;whiteSpace=wrap;html=1;" parent="1" vertex="1">
                    <mxGeometry x="5862.5" y="-1300" width="240" height="480" as="geometry"/>
                </mxCell>
                <mxCell id="557" value="/myposts/:id" style="text;html=1;strokeColor=none;fillColor=none;align=center;verticalAlign=middle;whiteSpace=wrap;rounded=0;" parent="1" vertex="1">
                    <mxGeometry x="5862.5" y="-1330" width="60" height="30" as="geometry"/>
                </mxCell>
                <mxCell id="558" value="&lt;font color=&quot;#ffffff&quot;&gt;imagen&lt;/font&gt;" style="whiteSpace=wrap;html=1;aspect=fixed;fontSize=40;fontColor=#ffffff;fillColor=#d80073;strokeColor=#A50040;" parent="1" vertex="1">
                    <mxGeometry x="5882.5" y="-1220" width="200" height="200" as="geometry"/>
                </mxCell>
                <mxCell id="562" value="" style="rounded=0;whiteSpace=wrap;html=1;fontSize=12;fontColor=#FFFFFF;" parent="1" vertex="1">
                    <mxGeometry x="5862.5" y="-865" width="240" height="45" as="geometry"/>
                </mxCell>
                <mxCell id="563" value="&lt;font style=&quot;font-size: 7px;&quot;&gt;INICIO (FEED)&lt;/font&gt;" style="rounded=1;whiteSpace=wrap;html=1;fontSize=12;fontColor=#ffffff;fillColor=#1ba1e2;strokeColor=#006EAF;" parent="1" vertex="1">
                    <mxGeometry x="5872.5" y="-855" width="60" height="25" as="geometry"/>
                </mxCell>
                <mxCell id="564" value="&lt;font style=&quot;font-size: 9px;&quot;&gt;PERFIL&lt;/font&gt;" style="ellipse;whiteSpace=wrap;html=1;fontSize=12;fontColor=#ffffff;fillColor=#d80073;strokeColor=#A50040;" parent="1" vertex="1">
                    <mxGeometry x="6025" y="-862.5" width="60" height="40" as="geometry"/>
                </mxCell>
                <mxCell id="565" value="Nombre de la red social" style="rounded=0;whiteSpace=wrap;html=1;fontSize=12;fontColor=#FFFFFF;" parent="1" vertex="1">
                    <mxGeometry x="5862.5" y="-1300" width="240" height="35" as="geometry"/>
                </mxCell>
                <mxCell id="566" value="&lt;font style=&quot;font-size: 8px;&quot;&gt;SUBIR&lt;br&gt;FOTO&lt;/font&gt;" style="ellipse;whiteSpace=wrap;html=1;aspect=fixed;fontSize=12;fontColor=#ffffff;fillColor=#1ba1e2;strokeColor=#006EAF;" parent="1" vertex="1">
                    <mxGeometry x="5963.75" y="-862.5" width="37.5" height="37.5" as="geometry"/>
                </mxCell>
                <mxCell id="567" value="" style="rounded=0;whiteSpace=wrap;html=1;" parent="1" vertex="1">
                    <mxGeometry x="5862.5" y="-1035" width="240" height="170" as="geometry"/>
                </mxCell>
                <mxCell id="568" value="" style="rounded=0;whiteSpace=wrap;html=1;fontSize=8;fontColor=#FFFFFF;" parent="1" vertex="1">
                    <mxGeometry x="5881.25" y="-1020" width="201.25" height="150" as="geometry"/>
                </mxCell>
                <mxCell id="569" value="" style="rounded=0;whiteSpace=wrap;html=1;fontSize=20;" parent="1" vertex="1">
                    <mxGeometry x="5881.25" y="-920" width="197.5" height="50" as="geometry"/>
                </mxCell>
                <mxCell id="570" value="" style="ellipse;whiteSpace=wrap;html=1;aspect=fixed;fontSize=40;fontColor=#ffffff;fillColor=#d80073;strokeColor=#A50040;" parent="1" vertex="1">
                    <mxGeometry x="5887.5" y="-917.5" width="20" height="20" as="geometry"/>
                </mxCell>
                <mxCell id="571" value="&lt;span style=&quot;font-size: 12px;&quot;&gt;Example&lt;/span&gt;" style="text;html=1;strokeColor=none;fillColor=none;align=left;verticalAlign=middle;whiteSpace=wrap;rounded=0;fontSize=40;fontColor=#FFFFFF;" parent="1" vertex="1">
                    <mxGeometry x="5910" y="-922.5" width="140" height="10" as="geometry"/>
                </mxCell>
                <mxCell id="572" value="ENVIAR" style="rounded=1;whiteSpace=wrap;html=1;fontSize=10;fillColor=#1ba1e2;fontColor=#ffffff;strokeColor=#006EAF;" parent="1" vertex="1">
                    <mxGeometry x="6020" y="-893.75" width="62.5" height="23.75" as="geometry"/>
                </mxCell>
                <mxCell id="573" value="Hola, Mundo" style="text;html=1;strokeColor=none;fillColor=none;align=center;verticalAlign=middle;whiteSpace=wrap;rounded=0;fontSize=10;" parent="1" vertex="1">
                    <mxGeometry x="5910" y="-905" width="60" height="30" as="geometry"/>
                </mxCell>
                <mxCell id="574" value="" style="rounded=0;whiteSpace=wrap;html=1;fontSize=20;" parent="1" vertex="1">
                    <mxGeometry x="5881.25" y="-1020" width="197.5" height="50" as="geometry"/>
                </mxCell>
                <mxCell id="575" value="&lt;span style=&quot;font-size: 12px;&quot;&gt;Admin&lt;/span&gt;" style="text;html=1;strokeColor=none;fillColor=none;align=left;verticalAlign=middle;whiteSpace=wrap;rounded=0;fontSize=40;fontColor=#FFFFFF;" parent="1" vertex="1">
                    <mxGeometry x="5911.88" y="-1021.25" width="140" height="10" as="geometry"/>
                </mxCell>
                <mxCell id="576" value="" style="ellipse;whiteSpace=wrap;html=1;aspect=fixed;fontSize=40;fontColor=#ffffff;fillColor=#d80073;strokeColor=#A50040;" parent="1" vertex="1">
                    <mxGeometry x="5885" y="-1015" width="20" height="20" as="geometry"/>
                </mxCell>
                <mxCell id="577" value="Hola a todos" style="text;html=1;strokeColor=none;fillColor=none;align=center;verticalAlign=middle;whiteSpace=wrap;rounded=0;fontSize=10;" parent="1" vertex="1">
                    <mxGeometry x="5911.88" y="-997.5" width="60" height="30" as="geometry"/>
                </mxCell>
                <mxCell id="578" value="" style="rounded=0;whiteSpace=wrap;html=1;fontSize=20;" parent="1" vertex="1">
                    <mxGeometry x="5881.25" y="-970" width="197.5" height="50" as="geometry"/>
                </mxCell>
                <mxCell id="579" value="&lt;span style=&quot;font-size: 12px;&quot;&gt;Admin&lt;/span&gt;" style="text;html=1;strokeColor=none;fillColor=none;align=left;verticalAlign=middle;whiteSpace=wrap;rounded=0;fontSize=40;fontColor=#FFFFFF;" parent="1" vertex="1">
                    <mxGeometry x="5910" y="-970" width="140" height="10" as="geometry"/>
                </mxCell>
                <mxCell id="580" value="" style="ellipse;whiteSpace=wrap;html=1;aspect=fixed;fontSize=40;fontColor=#ffffff;fillColor=#d80073;strokeColor=#A50040;" parent="1" vertex="1">
                    <mxGeometry x="5885" y="-965" width="20" height="20" as="geometry"/>
                </mxCell>
                <mxCell id="581" value="Hola" style="text;html=1;strokeColor=none;fillColor=none;align=center;verticalAlign=middle;whiteSpace=wrap;rounded=0;fontSize=10;" parent="1" vertex="1">
                    <mxGeometry x="5892.5" y="-950" width="60" height="30" as="geometry"/>
                </mxCell>
                <mxCell id="582" value="Escribe un comentario..." style="rounded=0;whiteSpace=wrap;html=1;fontSize=10;fillColor=#a20025;fontColor=#ffffff;strokeColor=#6F0000;" parent="1" vertex="1">
                    <mxGeometry x="5881.25" y="-893.75" width="138.75" height="23.75" as="geometry"/>
                </mxCell>
                <mxCell id="583" value="&lt;font style=&quot;font-size: 8px;&quot;&gt;EDITAR&lt;/font&gt;" style="rounded=1;whiteSpace=wrap;html=1;fillColor=#1ba1e2;fontColor=#ffffff;strokeColor=#006EAF;" parent="1" vertex="1">
                    <mxGeometry x="6041.88" y="-985" width="30.62" height="10" as="geometry"/>
                </mxCell>
                <mxCell id="584" value="&lt;font style=&quot;font-size: 8px;&quot;&gt;EDITAR&lt;/font&gt;" style="rounded=1;whiteSpace=wrap;html=1;fillColor=#1ba1e2;fontColor=#ffffff;strokeColor=#006EAF;" parent="1" vertex="1">
                    <mxGeometry x="6041.88" y="-937.5" width="30.62" height="10" as="geometry"/>
                </mxCell>
                <mxCell id="585" value="CERRAR" style="rounded=0;whiteSpace=wrap;html=1;fontSize=8;fillColor=#1ba1e2;fontColor=#ffffff;strokeColor=#006EAF;" parent="1" vertex="1">
                    <mxGeometry x="5862.5" y="-1050" width="240" height="20" as="geometry"/>
                </mxCell>
                <mxCell id="586" value="&lt;span style=&quot;font-size: 8px;&quot;&gt;BORRAR&lt;/span&gt;" style="rounded=1;whiteSpace=wrap;html=1;fillColor=#1ba1e2;fontColor=#ffffff;strokeColor=#006EAF;" parent="1" vertex="1">
                    <mxGeometry x="6001.25" y="-985" width="30.62" height="10" as="geometry"/>
                </mxCell>
                <mxCell id="587" value="&lt;span style=&quot;font-size: 8px;&quot;&gt;BORRAR&lt;/span&gt;" style="rounded=1;whiteSpace=wrap;html=1;fillColor=#1ba1e2;fontColor=#ffffff;strokeColor=#006EAF;" parent="1" vertex="1">
                    <mxGeometry x="6001.25" y="-937.5" width="30.62" height="10" as="geometry"/>
                </mxCell>
                <mxCell id="608" value="" style="rounded=0;whiteSpace=wrap;html=1;" parent="1" vertex="1">
                    <mxGeometry x="4785.63" y="-326.25" width="240" height="490" as="geometry"/>
                </mxCell>
                <mxCell id="609" value="Editar perfil" style="rounded=0;whiteSpace=wrap;html=1;fontSize=12;fontColor=#FFFFFF;" parent="1" vertex="1">
                    <mxGeometry x="4785.63" y="-326.25" width="240" height="35" as="geometry"/>
                </mxCell>
                <mxCell id="610" value="/myprofile/edit" style="text;html=1;strokeColor=none;fillColor=none;align=center;verticalAlign=middle;whiteSpace=wrap;rounded=0;" parent="1" vertex="1">
                    <mxGeometry x="4785.63" y="-356.25" width="100" height="30" as="geometry"/>
                </mxCell>
                <mxCell id="611" value="Admin2" style="rounded=1;whiteSpace=wrap;html=1;labelBackgroundColor=none;fontSize=10;align=center;fillColor=#a20025;fontColor=#ffffff;strokeColor=#6F0000;" parent="1" vertex="1">
                    <mxGeometry x="4835.63" y="-205" width="150" height="22.5" as="geometry"/>
                </mxCell>
                <mxCell id="612" value="Nueva contraseña" style="text;html=1;strokeColor=none;fillColor=none;align=center;verticalAlign=middle;whiteSpace=wrap;rounded=0;labelBackgroundColor=none;fontSize=10;" parent="1" vertex="1">
                    <mxGeometry x="4835.63" y="-235" width="91.25" height="30" as="geometry"/>
                </mxCell>
                <mxCell id="615" value="ACEPTAR" style="rounded=1;whiteSpace=wrap;html=1;labelBackgroundColor=none;fontSize=10;fillColor=#1ba1e2;fontColor=#ffffff;strokeColor=#006EAF;" parent="1" vertex="1">
                    <mxGeometry x="4850.63" y="-41.25" width="120" height="60" as="geometry"/>
                </mxCell>
                <mxCell id="616" value="CANCELAR" style="rounded=1;whiteSpace=wrap;html=1;labelBackgroundColor=none;fontSize=10;fillColor=#1ba1e2;fontColor=#ffffff;strokeColor=#006EAF;" parent="1" vertex="1">
                    <mxGeometry x="4850.63" y="43.75" width="120" height="60" as="geometry"/>
                </mxCell>
                <mxCell id="617" value="CAMBIAR CONTRASEÑA" style="text;html=1;strokeColor=none;fillColor=none;align=center;verticalAlign=middle;whiteSpace=wrap;rounded=0;labelBackgroundColor=none;fontSize=10;" parent="1" vertex="1">
                    <mxGeometry x="4848.13" y="-271.25" width="115" height="30" as="geometry"/>
                </mxCell>
                <mxCell id="619" value="Admin2" style="rounded=1;whiteSpace=wrap;html=1;labelBackgroundColor=none;fontSize=10;align=center;fillColor=#a20025;fontColor=#ffffff;strokeColor=#6F0000;" parent="1" vertex="1">
                    <mxGeometry x="4835.63" y="-140" width="150" height="22.5" as="geometry"/>
                </mxCell>
                <mxCell id="620" value="Repetir nueva contraseña" style="text;html=1;strokeColor=none;fillColor=none;align=center;verticalAlign=middle;whiteSpace=wrap;rounded=0;labelBackgroundColor=none;fontSize=10;" parent="1" vertex="1">
                    <mxGeometry x="4833.13" y="-170" width="121.25" height="30" as="geometry"/>
                </mxCell>
                <mxCell id="621" value="" style="rounded=0;whiteSpace=wrap;html=1;" parent="1" vertex="1">
                    <mxGeometry x="4483.75" y="225" width="240" height="480" as="geometry"/>
                </mxCell>
                <mxCell id="622" value="Editar perfil" style="rounded=0;whiteSpace=wrap;html=1;fontSize=12;fontColor=#FFFFFF;" parent="1" vertex="1">
                    <mxGeometry x="4483.75" y="225" width="240" height="35" as="geometry"/>
                </mxCell>
                <mxCell id="623" value="/myprofile/edit" style="text;html=1;strokeColor=none;fillColor=none;align=center;verticalAlign=middle;whiteSpace=wrap;rounded=0;" parent="1" vertex="1">
                    <mxGeometry x="4483.75" y="195" width="100" height="30" as="geometry"/>
                </mxCell>
                <mxCell id="624" value="Admin2@gmail.com" style="rounded=1;whiteSpace=wrap;html=1;labelBackgroundColor=none;fontSize=10;align=center;fillColor=#a20025;fontColor=#ffffff;strokeColor=#6F0000;" parent="1" vertex="1">
                    <mxGeometry x="4533.75" y="346.25" width="150" height="22.5" as="geometry"/>
                </mxCell>
                <mxCell id="625" value="Nuevo email" style="text;html=1;strokeColor=none;fillColor=none;align=center;verticalAlign=middle;whiteSpace=wrap;rounded=0;labelBackgroundColor=none;fontSize=10;" parent="1" vertex="1">
                    <mxGeometry x="4533.75" y="316.25" width="80" height="30" as="geometry"/>
                </mxCell>
                <mxCell id="628" value="ACEPTAR" style="rounded=1;whiteSpace=wrap;html=1;labelBackgroundColor=none;fontSize=10;fillColor=#1ba1e2;fontColor=#ffffff;strokeColor=#006EAF;" parent="1" vertex="1">
                    <mxGeometry x="4548.75" y="510" width="120" height="60" as="geometry"/>
                </mxCell>
                <mxCell id="629" value="CANCELAR" style="rounded=1;whiteSpace=wrap;html=1;labelBackgroundColor=none;fontSize=10;fillColor=#1ba1e2;fontColor=#ffffff;strokeColor=#006EAF;" parent="1" vertex="1">
                    <mxGeometry x="4548.75" y="595" width="120" height="60" as="geometry"/>
                </mxCell>
                <mxCell id="630" value="CAMBIAR EMAIL" style="text;html=1;strokeColor=none;fillColor=none;align=center;verticalAlign=middle;whiteSpace=wrap;rounded=0;labelBackgroundColor=none;fontSize=10;" parent="1" vertex="1">
                    <mxGeometry x="4546.25" y="280" width="115" height="30" as="geometry"/>
                </mxCell>
                <mxCell id="631" value="EDITAR LA FOTO DE PERFIL" style="rounded=1;whiteSpace=wrap;html=1;labelBackgroundColor=none;fontSize=10;fillColor=#1ba1e2;fontColor=#ffffff;strokeColor=#006EAF;" parent="1" vertex="1">
                    <mxGeometry x="4223.75" y="-260" width="120" height="60" as="geometry"/>
                </mxCell>
                <mxCell id="632" value="admin@gmail.com" style="rounded=1;whiteSpace=wrap;html=1;align=left;fillColor=#a20025;fontColor=#ffffff;strokeColor=#6F0000;" parent="1" vertex="1">
                    <mxGeometry x="3820" y="-2490" width="180" height="30" as="geometry"/>
                </mxCell>
                <mxCell id="633" value="EMAIL" style="text;html=1;strokeColor=none;fillColor=none;align=left;verticalAlign=middle;whiteSpace=wrap;rounded=0;" parent="1" vertex="1">
                    <mxGeometry x="3820" y="-2520" width="60" height="30" as="geometry"/>
                </mxCell>
                <mxCell id="634" value="" style="rounded=0;whiteSpace=wrap;html=1;" parent="1" vertex="1">
                    <mxGeometry x="4785.63" y="215" width="240" height="490" as="geometry"/>
                </mxCell>
                <mxCell id="635" value="Editar perfil" style="rounded=0;whiteSpace=wrap;html=1;fontSize=12;fontColor=#FFFFFF;" parent="1" vertex="1">
                    <mxGeometry x="4785.63" y="215" width="240" height="35" as="geometry"/>
                </mxCell>
                <mxCell id="636" value="/myprofile/edit" style="text;html=1;strokeColor=none;fillColor=none;align=center;verticalAlign=middle;whiteSpace=wrap;rounded=0;" parent="1" vertex="1">
                    <mxGeometry x="4785.63" y="185" width="100" height="30" as="geometry"/>
                </mxCell>
                <mxCell id="637" value="Admin.png" style="rounded=1;whiteSpace=wrap;html=1;labelBackgroundColor=none;fontSize=10;align=center;fillColor=#a20025;fontColor=#ffffff;strokeColor=#6F0000;" parent="1" vertex="1">
                    <mxGeometry x="4835.63" y="336.25" width="150" height="22.5" as="geometry"/>
                </mxCell>
                <mxCell id="638" value="Nueva foto de perfil" style="text;html=1;strokeColor=none;fillColor=none;align=center;verticalAlign=middle;whiteSpace=wrap;rounded=0;labelBackgroundColor=none;fontSize=10;" parent="1" vertex="1">
                    <mxGeometry x="4835.63" y="306.25" width="91.25" height="30" as="geometry"/>
                </mxCell>
                <mxCell id="641" value="ACEPTAR" style="rounded=1;whiteSpace=wrap;html=1;labelBackgroundColor=none;fontSize=10;fillColor=#1ba1e2;fontColor=#ffffff;strokeColor=#006EAF;" parent="1" vertex="1">
                    <mxGeometry x="4850.63" y="500" width="120" height="60" as="geometry"/>
                </mxCell>
                <mxCell id="642" value="CANCELAR" style="rounded=1;whiteSpace=wrap;html=1;labelBackgroundColor=none;fontSize=10;fillColor=#1ba1e2;fontColor=#ffffff;strokeColor=#006EAF;" parent="1" vertex="1">
                    <mxGeometry x="4850.63" y="585" width="120" height="60" as="geometry"/>
                </mxCell>
                <mxCell id="643" value="CAMBIAR FOTO" style="text;html=1;strokeColor=none;fillColor=none;align=center;verticalAlign=middle;whiteSpace=wrap;rounded=0;labelBackgroundColor=none;fontSize=10;" parent="1" vertex="1">
                    <mxGeometry x="4848.13" y="270" width="115" height="30" as="geometry"/>
                </mxCell>
                <mxCell id="646" value="EDITAR CONTRASEÑA" style="rounded=1;whiteSpace=wrap;html=1;labelBackgroundColor=none;fontSize=10;fillColor=#1ba1e2;fontColor=#ffffff;strokeColor=#006EAF;" parent="1" vertex="1">
                    <mxGeometry x="4223.75" y="-31.25" width="120" height="60" as="geometry"/>
                </mxCell>
                <mxCell id="649" value="&lt;font color=&quot;#000000&quot;&gt;TERMINADO&lt;/font&gt;" style="text;html=1;strokeColor=none;fillColor=none;align=center;verticalAlign=middle;whiteSpace=wrap;rounded=0;fontSize=20;fontColor=#FF9933;" parent="1" vertex="1">
                    <mxGeometry x="5053.75" y="-390" width="60" height="30" as="geometry"/>
                </mxCell>
                <mxCell id="651" value="&lt;h1&gt;HAY 9 RUTAS.&lt;/h1&gt;" style="text;html=1;strokeColor=none;fillColor=none;spacing=5;spacingTop=-20;whiteSpace=wrap;overflow=hidden;rounded=0;labelBackgroundColor=none;fontSize=20;" parent="1" vertex="1">
                    <mxGeometry x="-710" y="-2940" width="360" height="102.5" as="geometry"/>
                </mxCell>
                <mxCell id="656" value="" style="endArrow=classic;startArrow=classic;html=1;exitX=1;exitY=0.5;exitDx=0;exitDy=0;entryX=1;entryY=0.5;entryDx=0;entryDy=0;" parent="1" source="255" target="258" edge="1">
                    <mxGeometry width="50" height="50" relative="1" as="geometry">
                        <mxPoint x="1050" y="-2320" as="sourcePoint"/>
                        <mxPoint x="1100" y="-2370" as="targetPoint"/>
                        <Array as="points">
                            <mxPoint x="1150" y="-2200"/>
                            <mxPoint x="1150" y="-2650"/>
                        </Array>
                    </mxGeometry>
                </mxCell>
                <mxCell id="661" value="" style="endArrow=classic;startArrow=classic;html=1;entryX=0;entryY=1;entryDx=0;entryDy=0;exitX=1;exitY=0;exitDx=0;exitDy=0;" parent="1" source="260" target="259" edge="1">
                    <mxGeometry width="50" height="50" relative="1" as="geometry">
                        <mxPoint x="190" y="-2720" as="sourcePoint"/>
                        <mxPoint x="240" y="-2770" as="targetPoint"/>
                    </mxGeometry>
                </mxCell>
                <mxCell id="664" value="&lt;h1&gt;Lo naranja son las rutas relacionadas al usuario (myprofile, mypost, etc).&lt;/h1&gt;" style="text;html=1;strokeColor=none;fillColor=none;spacing=5;spacingTop=-20;whiteSpace=wrap;overflow=hidden;rounded=0;labelBackgroundColor=none;fontSize=20;" parent="1" vertex="1">
                    <mxGeometry x="60" y="-3375" width="330" height="340" as="geometry"/>
                </mxCell>
                <mxCell id="665" value="&lt;h1&gt;Lo azul son las rutas relacionadas a otros usuarios.&lt;/h1&gt;" style="text;html=1;strokeColor=none;fillColor=none;spacing=5;spacingTop=-20;whiteSpace=wrap;overflow=hidden;rounded=0;labelBackgroundColor=none;fontSize=20;" parent="1" vertex="1">
                    <mxGeometry x="790" y="-3341.87" width="330" height="291.87" as="geometry"/>
                </mxCell>
                <mxCell id="666" value="&lt;h1&gt;Lo verde son las rutas de login y register.&lt;/h1&gt;" style="text;html=1;strokeColor=none;fillColor=none;spacing=5;spacingTop=-20;whiteSpace=wrap;overflow=hidden;rounded=0;labelBackgroundColor=none;fontSize=20;" parent="1" vertex="1">
                    <mxGeometry x="440" y="-3363.75" width="300" height="263.75" as="geometry"/>
                </mxCell>
                <mxCell id="667" value="&lt;font style=&quot;font-size: 150px;&quot;&gt;&lt;b&gt;RUTAS&lt;/b&gt;&lt;/font&gt;" style="text;html=1;strokeColor=none;fillColor=none;align=center;verticalAlign=middle;whiteSpace=wrap;rounded=0;" parent="1" vertex="1">
                    <mxGeometry x="-560" y="-3880" width="620" height="410" as="geometry"/>
                </mxCell>
                <mxCell id="668" value="&lt;span style=&quot;font-size: 150px;&quot;&gt;&lt;b&gt;PAGES&lt;/b&gt;&lt;/span&gt;" style="text;html=1;strokeColor=none;fillColor=none;align=center;verticalAlign=middle;whiteSpace=wrap;rounded=0;" parent="1" vertex="1">
                    <mxGeometry x="3540" y="-3990" width="620" height="410" as="geometry"/>
                </mxCell>
            </root>
        </mxGraphModel>
    </diagram>
</mxfile>